<svg xmlns="http://www.w3.org/2000/svg" fill="none" viewBox="0 0 200 200" id="Empty-Cart-2--Streamline-Bruxelles.svg"><desc>Empty Cart 2 Streamline Illustration: https://streamlinehq.com</desc><g id="Empty-Cart-2--Streamline-Bruxelles.svg"><g id="fly 2"><path id="vector" fill="#ffffff" d="M85.597 12.174c-0.775 -0.735 -1.385 -1.434 -1.866 -2.246 -0.187 -0.316 -0.172 -0.546 0.176 -0.793 0.331 -0.235 0.529 -0.211 0.784 0.073 0.718 0.803 1.18 1.682 0.906 2.966Z" stroke-width="1"></path><path id="vector_2" fill="#ffffff" d="M88.571 9.752c-0.429 0.45 -0.937 0.828 -1.556 1.365 -0.06 -2.28 -0.063 -2.793 1.006 -3.264 0.461 -0.203 1.203 1.214 0.55 1.899Z" stroke-width="1"></path><path id="vector_3" fill="#ffffff" d="M87.788 14.547c0.038 -1.449 0.471 -1.714 1.625 -1.093 1.615 0.868 -2.095 4.147 -1.625 1.093Z" stroke-width="1"></path><path id="vector_4" fill="#ffffff" d="M84.206 15.956c-0.688 0.15 -1.264 -0.657 -0.145 -1.61l0.145 1.61Z" stroke-width="1"></path><path id="vector_5" fill="#ffffff" d="M87.115 16.232c-1.503 0.15 -1.812 0 -1.966 -0.922 -0.209 -1.247 0.16 -1.665 1.881 -2.037 -0.223 1.055 -0.256 2.015 0.085 2.959Z" stroke-width="1"></path><path id="vector_6" fill="#da5b5b" d="M89.568 12.272c-1.671 -0.671 -2.934 0.377 -0.799 -1.25 2.262 -1.722 0.468 -5.038 -1.333 -4.044 -1.509 0.833 -0.966 2.017 -1.365 2.317 -1.002 -1.187 -1.52 -1.885 -2.787 -0.955 -1.64 1.203 0.254 2.925 1.483 4.397 -2.05 1.39 -3.291 3.04 -1.093 4.18 0.733 0.38 -0.216 2.033 0.833 2.102 1.071 0.07 -0.16 -1.822 0.975 -1.734 1.002 0.077 0.482 0.516 0.701 1.5 0.08 0.36 0.178 0.792 0.683 0.719 0.955 -0.138 -0.32 -1.814 0.532 -2.088 0.594 -0.191 1.344 -0.883 1.928 0.098 0.424 0.713 1.376 -0.038 0.746 -0.632 -0.71 -0.67 0.064 -0.665 0.599 -1.701 0.639 -1.24 0.184 -2.393 -1.102 -2.91l-0.001 0Zm-5.508 2.075 0.145 1.61c-0.688 0.15 -1.264 -0.657 -0.145 -1.61Zm-0.329 -4.42c-0.187 -0.315 -0.172 -0.545 0.176 -0.792 0.331 -0.235 0.529 -0.211 0.784 0.073 0.718 0.803 1.18 1.68 0.906 2.965 -0.775 -0.735 -1.385 -1.434 -1.866 -2.246Zm1.418 5.384c-0.209 -1.247 0.16 -1.665 1.881 -2.037 -0.223 1.055 -0.256 2.015 0.085 2.959 -1.503 0.15 -1.812 0 -1.966 -0.922Zm1.866 -4.194c-0.06 -2.28 -0.063 -2.793 1.006 -3.264 0.461 -0.203 1.203 1.214 0.55 1.899 -0.429 0.45 -0.937 0.828 -1.556 1.365Zm0.772 3.43c0.038 -1.45 0.471 -1.714 1.625 -1.093 1.615 0.868 -2.095 4.147 -1.625 1.093Z" stroke-width="1"></path></g><g id="fly 3"><path id="vector_7" fill="#ffffff" d="M145.932 49.259c-0.111 -0.764 0.292 -1.266 0.648 -1.77 1.071 -1.517 2.667 1.178 -0.648 1.77Z" stroke-width="1"></path><path id="vector_8" fill="#ffffff" d="M144.539 49.253c-0.506 0.146 -1.536 -2.316 -0.862 -2.613 1.318 -0.582 1.729 2.363 0.862 2.613Z" stroke-width="1"></path><path id="vector_9" fill="#ffffff" d="M144.363 53.754c-0.692 0.044 -1.68 -0.67 -1.699 -1.189 -0.015 -0.405 1.037 -1.44 1.507 -1.311 0.777 0.212 0.472 1.022 0.675 1.574 -0.196 0.307 0.178 0.884 -0.483 0.926Z" stroke-width="1"></path><path id="vector_10" fill="#ffffff" d="M145.97 53.896c-0.466 -0.135 0.256 -1.262 -0.565 -3.048 1.013 0.05 1.951 -0.174 2.585 0.695 0.851 1.166 -0.727 2.727 -2.02 2.353Z" stroke-width="1"></path><path id="vector_11" fill="#da5b5b" d="M149.612 53.769c-0.174 -0.238 -0.465 -0.378 -0.385 -0.786 0.279 -1.427 -0.169 -2.538 -1.65 -3.148 3.019 -1.754 0.093 -5.516 -1.661 -2.814 -0.236 -0.354 -0.387 -0.637 -0.59 -0.87 -0.827 -0.952 -3.004 -0.977 -2.816 1.149 0.229 2.589 2.147 2.62 0.452 3.39 -2.079 0.945 -1.707 3.324 0.572 4.003 0.396 0.118 0.606 0.216 0.485 0.686 -0.096 0.374 -0.22 0.904 0.334 0.982 0.951 0.133 0.263 -1.681 1.213 -1.365 0.394 0.131 1.053 -0.243 1.124 0.577 0.029 0.336 -0.011 0.832 0.583 0.732 0.565 -0.094 0.383 -0.574 0.387 -0.902 0.011 -0.828 0.653 -1.295 1.351 -0.924 0.811 0.431 1.013 -0.146 0.599 -0.71h0.002Zm-5.249 -0.016c-0.692 0.044 -1.68 -0.67 -1.699 -1.189 -0.015 -0.405 1.037 -1.44 1.507 -1.311 0.777 0.212 0.472 1.022 0.675 1.574 -0.196 0.307 0.178 0.884 -0.483 0.926Zm0.176 -4.501c-0.506 0.146 -1.536 -2.316 -0.862 -2.613 1.318 -0.582 1.729 2.363 0.862 2.613Zm2.041 -1.763c1.071 -1.517 2.667 1.178 -0.648 1.77 -0.111 -0.764 0.292 -1.266 0.648 -1.77Zm-0.61 6.407c-0.466 -0.135 0.256 -1.262 -0.565 -3.048 1.013 0.051 1.951 -0.174 2.585 0.695 0.851 1.166 -0.727 2.727 -2.02 2.353Z" stroke-width="1"></path></g><g id="fly 1"><path id="vector_12" fill="#ffffff" d="M55.402 31.915c-0.111 -0.764 0.292 -1.266 0.648 -1.77 1.071 -1.517 2.667 1.178 -0.648 1.77Z" stroke-width="1"></path><path id="vector_13" fill="#ffffff" d="M54.008 31.909c-0.506 0.146 -1.536 -2.316 -0.862 -2.614 1.318 -0.582 1.729 2.363 0.862 2.614Z" stroke-width="1"></path><path id="vector_14" fill="#ffffff" d="M53.832 36.41c-0.692 0.044 -1.68 -0.67 -1.699 -1.189 -0.015 -0.405 1.037 -1.44 1.507 -1.311 0.753 0.206 0.921 2.453 0.192 2.5Z" stroke-width="1"></path><path id="vector_15" fill="#ffffff" d="M55.439 36.552c-0.466 -0.135 0.256 -1.262 -0.565 -3.048 1.013 0.05 1.951 -0.174 2.585 0.695 0.851 1.166 -0.727 2.727 -2.02 2.353Z" stroke-width="1"></path><path id="vector_16" fill="#da5b5b" d="M59.081 36.426c-0.174 -0.238 -0.465 -0.378 -0.385 -0.786 0.279 -1.427 -0.169 -2.538 -1.65 -3.148 3.019 -1.754 0.094 -5.516 -1.661 -2.814 -0.236 -0.354 -0.387 -0.637 -0.59 -0.87 -0.827 -0.952 -3.004 -0.977 -2.816 1.149 0.229 2.589 2.147 2.62 0.452 3.39 -2.079 0.945 -1.707 3.324 0.572 4.003 0.396 0.118 0.606 0.216 0.485 0.686 -0.096 0.374 -0.22 0.904 0.334 0.982 0.951 0.133 0.263 -1.681 1.213 -1.365 0.394 0.13 1.053 -0.243 1.124 0.577 0.029 0.336 -0.011 0.832 0.583 0.732 0.565 -0.094 0.383 -0.574 0.387 -0.902 0.011 -0.828 0.653 -1.295 1.351 -0.924 0.811 0.43 1.013 -0.146 0.599 -0.71h0.002Zm-5.249 -0.016c-0.692 0.044 -1.68 -0.67 -1.699 -1.19 -0.015 -0.404 1.037 -1.44 1.507 -1.31 0.753 0.206 0.921 2.453 0.192 2.5Zm0.176 -4.501c-0.506 0.146 -1.536 -2.316 -0.862 -2.614 1.318 -0.582 1.729 2.363 0.862 2.614Zm2.041 -1.763c1.071 -1.517 2.667 1.178 -0.648 1.77 -0.111 -0.764 0.292 -1.266 0.648 -1.77Zm-0.61 6.407c-0.466 -0.135 0.256 -1.262 -0.565 -3.048 1.013 0.05 1.951 -0.174 2.585 0.695 0.851 1.166 -0.727 2.727 -2.02 2.353Z" stroke-width="1"></path></g><g id="cart"><path id="vector_17" fill="#114c8d" d="M71.372 180.967c-7.867 1.151 -13.76 -7.221 -8.339 -15.55 2.191 -3.366 6.454 -4.648 8.827 -3.918 -1.503 0.209 -2.696 1.064 -3.929 1.803 -2.797 1.677 -7.271 14.779 3.442 17.664l-0.001 0.001Z" stroke-width="1"></path><path id="vector_18" fill="#114c8d" d="M74.086 168.051c-2.055 -0.874 -2.296 -0.223 -2.654 0.623 -0.448 1.059 -0.821 2.106 -0.835 3.292 -0.023 1.948 -0.124 1.809 6.972 4.461 0.356 0.133 0.287 0.26 0.171 0.483 -1.25 2.408 -3.602 3.638 -7.927 2.124 -3.865 -1.354 -6.015 -8.508 -1.792 -14.085 1.325 -1.75 3.183 -1.884 4.475 -2.28 2.502 -0.767 3.61 0.426 5.1 2.157 0.801 0.931 1.386 1.999 1.578 3.319 0.416 2.849 2.043 2.938 -5.089 -0.096l0.001 0.002Z" stroke-width="1"></path><path id="vector_19" fill="#114c8d" d="M103.464 169.313c-6.78 0.746 -9.187 -6.323 -7.843 -10.301 1.05 -3.11 4.414 -5.98 8.108 -5.482 -7.15 1.995 -8.03 14.038 -0.265 15.783Z" stroke-width="1"></path><path id="vector_20" fill="#114c8d" d="M109.472 160.177c-1.066 -0.195 -2.168 -0.122 -3.221 -0.481 -1.607 -0.547 -3.829 3.568 -0.579 4.889 1.801 0.732 4.277 -0.027 3.395 1.171 -2.272 3.086 -2.905 2.565 -3.985 2.576 -4.78 0.434 -6.714 -4.769 -5.995 -7.56 0.95 -3.687 1.687 -5.631 5.514 -6.278 3.072 -0.519 4.377 2.019 5.499 4.831 0.172 0.432 0.307 1.022 -0.628 0.852Z" stroke-width="1"></path><path id="vector_21" fill="#114c8d" d="M113.224 193.089c0.367 0.053 0.414 0.165 0.617 0.338 -2.729 0.414 -5.104 -0.107 -7.193 -1.768 -8.365 -6.652 -1.719 -20.124 7.357 -18.448 -9.005 1.333 -10.389 18.501 -0.781 19.877v0.001Z" stroke-width="1"></path><path id="vector_22" fill="#114c8d" d="M122.237 184.015c-0.292 3.368 -2.358 5.681 -3.862 7.3 -1.558 1.676 -7.532 0.596 -8.744 -1.899 -0.398 -0.819 -0.953 -1.547 -1.329 -2.422 -1.221 -2.84 -0.113 -7.057 1.24 -9.216 1.398 -2.231 3.081 -2.942 5.309 -3.406 2.516 -0.524 3.426 -0.091 5.369 2.531 1.376 1.857 2.106 3.898 2.017 7.113v-0.001Z" stroke-width="1"></path><path id="vector_23" fill="#114c8d" d="M157.043 177.753c-0.9 0.761 -4.796 0.84 -7.01 -1.224 -2.543 -2.37 -3.475 -7.727 0.154 -12.297 1.345 -1.694 3.738 -2.001 3.76 -2.01 5.055 -2.059 10.938 8.905 3.097 15.532l-0.001 -0.001Z" stroke-width="1"></path><path id="vector_24" fill="#114c8d" d="M153.214 179.391c-5.91 1.781 -13.222 -6.314 -8.246 -14.256 1.756 -2.803 5.149 -4.795 8.595 -4.02 -6.28 1.54 -8.725 9.075 -5.356 14.973 1.568 2.745 4.713 2.886 5.007 3.303Z" stroke-width="1"></path><path id="vector_25" fill="#ffffff" d="M101.83 180.996c-0.323 0.853 -0.305 1.745 -0.35 2.745 -7.398 -2.411 -24.893 -9.089 -28.337 -10.089 -1.955 -0.567 -1.662 -2.073 -0.862 -3.945 0.885 -2.071 0.161 -0.456 18.246 6.358 3.134 1.181 6.412 2.682 10.868 4.109 0.461 0.148 0.594 0.398 0.434 0.821l0.001 0.001Z" stroke-width="1"></path><path id="vector_26" fill="#ffffff" d="M94.379 165.406c-9.039 1.689 -3.205 0.416 -13.152 2.765 -0.83 0.196 -0.708 -0.205 -0.801 -0.677 -0.1 -0.503 -0.779 -1.008 -0.334 -1.454 0.31 -0.309 6.928 -1.511 7.934 -1.674 5.463 -0.883 6.26 -1.685 6.195 -0.672 -0.076 1.184 1.155 1.526 0.158 1.712Z" stroke-width="1"></path><path id="vector_27" fill="#ffffff" d="M108.061 146.722c0.022 0.962 -1.516 5.683 -1.523 5.706 -0.241 0.791 -0.009 0.246 -2.912 -0.098 -1.329 -0.158 0.088 -1.411 0.194 -4.463 0.016 -0.47 0.04 -0.347 4.241 -1.144v-0.001Z" stroke-width="1"></path><path id="vector_28" fill="#ffffff" d="M142.738 166.816c-0.247 0.661 -0.075 1.639 -0.677 1.946 -0.963 0.491 -6.253 -0.856 -20.561 -2.927 -9.586 -1.388 -7.132 -0.871 -11.291 -1.785 -2.625 -0.577 -1.959 0.317 -4.679 -0.764 -0.65 -0.258 -0.446 -0.931 -0.296 -1.445 0.169 -0.581 0.436 -1.159 1.207 -1.049 1.696 0.244 35.271 5.378 36.487 5.265 0.114 0.394 -0.113 0.552 -0.19 0.759Z" stroke-width="1"></path><path id="vector_29" fill="#ffffff" d="M143.003 174.712c0.007 0.447 -0.307 0.497 -0.568 0.579 -1.846 0.578 -3.569 1.473 -5.39 2.104 -11.562 4.006 -13.448 5.634 -13.526 4.773 -0.248 -2.718 -1.098 -3.256 -0.167 -3.415 1.333 -0.228 18.584 -7.251 18.945 -6.258 0.272 0.748 0.187 1.603 0.706 2.217Z" stroke-width="1"></path><path id="vector_30" fill="#ffffff" d="M150.336 159.915c-2.589 0.242 -3.64 2.213 -3.911 1.142 -3.622 -14.268 -5.36 -21.096 -6.489 -22.667 -0.251 -0.35 -0.345 -0.585 0.278 -0.728 1.632 -0.375 3.161 -0.97 4.196 -1.184 0.855 -0.178 1.559 5.59 3.831 14.479 1.866 7.299 3.215 8.853 2.095 8.958Z" stroke-width="1"></path><path id="vector_31" fill="#114c8d" d="M158.984 40.902c-30.409 -1.838 -30.762 -0.129 -29.216 -5.545 0.8 -2.803 6.637 -2.313 32.961 -0.406 7.553 0.547 20.428 1.2 20.705 3.23 0.986 7.243 -1.414 4.113 -24.45 2.721Z" stroke-width="1"></path><path id="vector_32" fill="#ffffff" d="M134.265 48.607c-0.005 0.022 -4.964 17.818 -6.83 23.666 -0.131 0.412 -0.309 0.551 -0.73 0.474 -3.694 -0.677 -3.651 -0.374 -3.43 -1.053 6.059 -18.674 4.724 -15.269 6.008 -18.717 2.799 -7.515 3.311 -7.534 4.018 -10.92 0.304 -1.457 0.697 -1.128 2.139 -1.074 2.916 0.11 0.179 1.011 -1.175 7.625Z" stroke-width="1"></path><path id="vector_33" fill="#ffffff" d="M176.78 43.787c-0.679 5.612 -7.679 20.805 -11.137 31.845 -0.945 3.016 -0.802 3.61 -1.67 3.315 -1.893 -0.642 -2.104 -0.539 -1.961 -1.055 1.542 -5.588 8.291 -23.677 10.136 -29.884 1.251 -4.21 1.051 -4.702 1.821 -4.47 0.924 0.278 1.877 0.158 2.812 0.25h-0.001Z" stroke-width="1"></path><path id="vector_34" fill="#ffffff" d="M129.359 134.739c-0.31 0.525 -1.287 0.62 -2.015 0.761 -1.532 0.297 -2.976 0.932 -4.552 1.086 -2.743 0.269 -3.662 1.329 -3.695 0.147 -0.105 -3.749 -0.565 -4.011 0.178 -4.212 2.609 -0.703 2.762 -0.495 9.53 -2.304 0.835 -0.223 0.59 -0.158 0.59 2.248 0.022 0 0.302 1.701 -0.036 2.274Z" stroke-width="1"></path><path id="vector_35" fill="#ffffff" d="M146.622 92.246c-0.354 2.04 -0.811 3.965 -0.868 5.946 -0.025 0.866 -8.188 2.639 -11.796 3.764 -0.721 0.225 -0.461 0.065 -0.652 -5.548 -0.023 -0.672 -0.12 -0.385 13.317 -4.163l-0.001 0.001Z" stroke-width="1"></path><path id="vector_36" fill="#ffffff" d="M141.783 127.402c-0.674 2.546 0.262 4.269 -1.126 4.608 -6.751 1.649 -6.923 2.255 -6.879 0.944 0.113 -3.341 -0.485 -3.916 0.263 -4.067 3.399 -0.686 8.01 -2.5 7.742 -1.485Z" stroke-width="1"></path><path id="vector_37" fill="#ffffff" d="M150.857 124.316c-0.443 1.231 -0.98 5.2 -2.26 5.463 -4.125 0.847 -3.456 2.756 -2.823 -3.5 0.101 -0.995 2.232 -0.779 5.083 -1.963Z" stroke-width="1"></path><path id="vector_38" fill="#ffffff" d="M154.394 111.943c-0.548 2.489 -1.463 4.845 -2.157 7.264 -0.162 0.566 -0.456 0.813 -1.113 0.931 -3.404 0.611 -4.778 1.848 -4.619 0.581 0.271 -2.16 0.895 -4.254 1.149 -6.418 0.063 -0.541 -0.073 -0.343 6.741 -2.357l-0.001 -0.001Z" stroke-width="1"></path><path id="vector_39" fill="#ffffff" d="M155.979 106.992c-0.202 0.63 0.147 0.44 -6.456 2.182 -1.327 0.35 -0.895 0.345 0.312 -6.251 0.191 -1.044 -0.233 -0.621 7.941 -3.148 0.492 -0.152 0.55 -0.107 -1.797 7.217Z" stroke-width="1"></path><path id="vector_40" fill="#ffffff" d="M161.743 86.732c-1.213 5.334 -1.217 4.775 -1.667 6.792 -0.258 1.153 -0.107 0.813 -7.62 3.041 -1.71 0.507 -1.772 0.681 -1.549 -0.875 0.753 -5.258 0.775 -5.084 1.155 -5.209 2.711 -0.893 8.141 -3.063 9.682 -3.749h-0.001Z" stroke-width="1"></path><path id="vector_41" fill="#ffffff" d="M129.568 102.711c0.031 1.282 -1.153 0.452 -8.778 3.326 -0.902 0.34 -1.963 0.318 -2.896 0.712 -0.318 0.134 -0.45 0.011 -0.474 -0.347 -0.388 -5.75 -1.245 -5.473 -0.296 -5.757 10.972 -3.288 9.321 -2.897 10.955 -3.353 2.04 -0.568 1.338 -0.869 1.489 5.419Z" stroke-width="1"></path><path id="vector_42" fill="#ffffff" d="M78.182 136.315c-7.275 -2.154 -4.632 -1.465 -8.796 -2.569 -0.893 -0.237 -0.632 -0.191 -1.402 -4.762 10.968 3.277 10.807 2.952 10.815 3.724 0.032 3.304 0.465 3.927 -0.617 3.606v0.001Z" stroke-width="1"></path><path id="vector_43" fill="#ffffff" d="M63.338 132.286c-6.303 -1.8 -5.574 -0.325 -6.888 -6.18 0.51 0.122 0.928 0.203 1.336 0.325 5.75 1.727 5.71 1.338 5.748 2.304 0.116 2.93 0.846 3.848 -0.196 3.551Z" stroke-width="1"></path><path id="vector_44" fill="#ffffff" d="M62.634 123.606c-5.788 -1.81 -5.356 -1.786 -5.788 -1.812 -1.113 -0.066 -1.365 -0.724 -1.463 -1.661 -0.634 -6.055 -0.741 -3.804 -0.476 -6.238 5.654 1.952 3.136 1.191 5.697 1.877 1.436 0.384 1.155 0.893 2.03 7.834Z" stroke-width="1"></path><path id="vector_45" fill="#ffffff" d="M60.036 111.678c-1.801 -0.309 -3.42 -1.229 -5.2 -1.594 -0.724 -0.148 -0.941 -0.456 -1.049 -1.187 -0.66 -4.499 -1.899 -5.867 -0.078 -5.189 7.572 2.818 5.962 0.777 7.206 7.38 0.071 1.158 -0.554 0.646 -0.879 0.59Z" stroke-width="1"></path><path id="vector_46" fill="#ffffff" d="M58.567 101.534c-6.554 -1.966 -6.315 -1.814 -6.641 -1.623 -0.361 0.212 -1.527 -4.656 -1.527 -5.178 0.601 0.138 8.167 1.941 8.25 2.645 0.261 2.217 1.305 4.572 -0.082 4.156Z" stroke-width="1"></path><path id="vector_47" fill="#ffffff" d="M112.974 107.722c-0.012 0.857 -13.132 4.559 -13.277 4.568 -0.456 -1.999 -0.371 -3.993 -0.628 -5.95 -0.054 -0.412 0.06 -0.508 0.412 -0.539 3.007 -0.266 13.019 -4.653 13.139 -3.562 0.201 1.823 0.381 3.644 0.354 5.483Z" stroke-width="1"></path><path id="vector_48" fill="#ffffff" d="M104.161 123.228c-1.445 0.496 -3.795 1.318 -3.822 0.332 -0.177 -6.469 -0.964 -6.506 0.029 -6.716 1.614 -0.342 3.135 -1.006 4.713 -1.463 3.914 -1.134 3.57 -0.261 7.398 -1.75 0.625 -0.243 0.727 -0.607 0.98 4.423 0.177 3.531 0.48 1.817 -9.296 5.174h-0.002Z" stroke-width="1"></path><path id="vector_49" fill="#ffffff" d="M107.436 132.328c-6.53 1.929 -6.375 1.747 -6.407 1.037 -0.214 -4.791 -0.599 -4.94 0.085 -5.089 0.015 -0.003 4.181 -1.232 12.5 -3.687 0.427 1.854 0.27 3.755 0.494 5.621 0.069 0.577 -0.141 0.188 -6.672 2.117v0.001Z" stroke-width="1"></path><path id="vector_50" fill="#ffffff" d="M114.506 138.572c-11.245 2.244 -9.815 2.028 -11.262 2.15 -1.492 0.421 -1.22 -0.833 -1.514 -2.395 -0.215 -1.142 -0.22 -1.133 0.873 -1.291 3.49 -0.504 11.771 -4.196 11.954 -2.76 0.163 1.275 0.051 2.58 0.412 3.836 0.102 0.356 -0.194 0.406 -0.463 0.46Z" stroke-width="1"></path><path id="vector_51" fill="#ffffff" d="M96.977 139.708c-0.031 1.968 -1.975 1.1 -4.343 0.452 -9.702 -2.655 -9.679 -2.32 -9.512 -3.228 0.176 -0.959 -0.208 -1.872 -0.136 -2.818 0.066 -0.857 -0.321 -0.668 5.637 1.031 6.451 1.839 6.783 1.888 7.455 1.939 0.565 0.043 0.412 0.049 0.899 2.625v-0.001Z" stroke-width="1"></path><path id="vector_52" fill="#ffffff" d="M95.975 133.512c-0.425 0.255 -1.329 -0.253 -2.008 -0.461 -3.109 -0.953 -6.21 -1.932 -9.316 -2.896 -1.687 -0.524 -1.815 -0.138 -1.897 -1.852 -0.256 -5.354 -0.27 -4.983 0.356 -4.793 0.022 0.007 1.795 0.524 12.021 4.027 0.944 0.323 0.666 1.369 0.957 4.012 -0.142 0.637 0.498 1.597 -0.113 1.963Z" stroke-width="1"></path><path id="vector_53" fill="#ffffff" d="M88.625 121.057c-5.612 -1.979 -4.722 -1.559 -5.652 -1.919 -0.78 -0.302 -0.543 -0.011 -0.543 -6.318 1.866 0.937 12.043 2.467 12.179 4.207 0.45 5.766 0.603 4.802 0.663 5.799 0.042 0.703 0.583 0.781 -6.647 -1.769Z" stroke-width="1"></path><path id="vector_54" fill="#ffffff" d="M93.01 111.465a56.659 56.659 0 0 1 -6.663 -1.906c-2.54 -0.902 -3.965 -0.501 -4.069 -1.487 -0.613 -5.777 -0.763 -5.207 0.078 -5.062 4.66 0.804 6.077 1.39 10.541 2.362 1.033 0.225 0.784 0.323 1.229 4.802 0.073 1.614 0.083 1.559 -1.116 1.291Z" stroke-width="1"></path><path id="vector_55" fill="#ffffff" d="M70.375 105.156c-6.382 -1.919 -6.23 -1.988 -6.293 -2.38 -0.248 -1.522 -0.541 -3.034 -0.846 -4.686 5.269 1.287 5.983 1.801 13.197 3.462 0.608 0.14 0.922 0.358 0.942 1.044 0.039 1.398 0.302 2.785 0.314 4.19 0.006 0.793 0.444 0.703 -7.314 -1.63Z" stroke-width="1"></path><path id="vector_56" fill="#114c8d" d="M96.441 136.044c-0.035 0.321 0.336 0.415 -6.977 -1.763 -7.727 -2.301 -7.716 -2.691 -7.616 -1.311 0.288 3.976 0.761 4.437 -0.238 4.19 -1.632 -0.404 -1.635 -0.385 -1.699 -2.093 -0.177 -4.762 0.837 -3.36 -7.288 -5.808 -7.376 -2.222 -5.791 -2.934 -5.091 3.301 0.13 1.155 -1.806 0.357 -2.413 0.225 -0.203 -0.044 -0.247 -0.191 -0.263 -0.383 -0.106 -1.287 -0.268 -2.571 -0.323 -3.86 -0.063 -1.485 -0.295 -1.372 -7.905 -3.388 -0.441 -0.117 -0.35 -0.111 -0.826 -2.536 0.327 -0.205 0.058 -0.182 6.373 1.91 2.565 0.85 1.137 -1.511 0.516 -8.301 -0.068 -0.741 -0.313 -1.273 -5.367 -2.66 -0.853 -0.234 -1.621 -0.745 -2.527 -0.784 -0.361 -0.015 -0.323 -0.238 -0.499 -1.607 -0.082 -0.058 -0.107 -0.122 -0.018 -0.194 0.158 0.238 6.739 1.988 7.302 2.257 1.402 0.67 -0.337 -4.773 -0.619 -7.947 -0.062 -0.703 -0.864 -0.284 -5.712 -2.139 -0.797 -0.305 -1.585 -0.631 -2.451 -0.717 -0.332 -0.033 -0.922 -1.209 -0.757 -1.456 0.169 -0.254 0.049 -0.195 4.902 1.213 3.604 1.046 3.733 1.258 3.566 0.327 -0.799 -4.448 -1.028 -5.138 -0.688 -5.098 2.903 0.342 2.295 0.011 2.807 2.549 0.249 1.233 0.473 2.464 0.501 3.724 0.013 0.577 -0.114 0.338 9.566 3.252 5.754 1.733 5.9 2.03 5.899 0.703 -0.002 -5.367 -0.775 -5.765 0.258 -5.51 1.99 0.493 2.016 0.436 2.048 0.984 0.381 6.471 0.236 6.303 0.828 6.425 3.329 0.682 6.518 1.896 9.824 2.662 2.295 0.532 2.752 0.363 2.758 1.643 0.007 1.405 0.053 1.307 -1.327 0.897 -11.045 -3.281 -5.446 -1.495 -10.959 -3.096a0.556 0.556 0 0 0 -0.711 0.533c-0.009 7.497 -0.128 7.522 1.069 7.895 1.574 0.49 11.765 3.84 12.322 3.929 0.516 0.082 0.774 0.345 0.786 0.919 0.012 0.568 0.194 1.129 0.116 1.759 -8.853 -3.023 -13.286 -4.536 -13.299 -4.539 -1.062 -0.403 -0.812 -0.058 -0.514 7.867 0.031 0.824 0.79 0.79 1.256 0.904 3.747 0.916 7.384 2.195 11.088 3.246 2.482 0.704 2.472 0.318 2.3 1.874l0.002 0.002Z" stroke-width="1"></path><path id="vector_57" fill="#114c8d" d="M159.523 95.508c-1.055 3.248 -0.902 3.106 -1.256 3.17 -2.838 0.517 -5.496 1.662 -8.284 2.362 -0.942 0.236 -1.08 0.552 -1.963 6.046 -0.478 2.972 -1.164 3.963 0.018 3.642 5.459 -1.48 5.933 -1.658 7.355 -2.081 -0.14 2.678 -0.761 1.892 -8.072 4.303 -0.41 0.135 -0.679 0.572 -0.721 1.022 -0.952 10.217 -4.187 9.637 5.158 7.13 -0.109 0.243 -0.191 0.338 -0.191 0.436 -0.014 2.549 -2.772 1.979 -5.973 3.275 -1.06 0.429 -0.814 0.908 -1.32 4.964 -0.187 1.498 -0.196 1.498 -1.812 1.719 0.145 -1.436 0.066 -2.867 0.43 -4.265 0.734 -2.825 -0.474 -1.266 -9.599 0.77 -0.759 0.169 -0.838 0.047 -0.552 5.363 0.028 0.528 -0.116 0.76 -0.641 0.875 -1.658 0.363 -1.648 0.378 -1.623 -1.385 0.05 -3.584 0.275 -4.624 -0.87 -4.029 -0.308 0.16 -10.732 2.645 -11.068 2.723 -0.955 0.22 -0.902 0.281 -0.427 5.361 0.091 0.975 -0.425 0.744 -0.902 0.853 -1.351 0.309 -1.358 0.312 -1.46 -1.086 -0.082 -1.115 -0.194 -2.233 -0.207 -3.353 -0.012 -1.006 -0.321 -1.095 -4.648 0.174 -8.577 2.515 -9.455 3.466 -9.501 2.166 -0.014 -0.394 -0.225 -0.789 0.519 -0.882 2.074 -0.257 4.049 -0.969 6.062 -1.509 6.712 -1.804 7.325 -1.474 7.199 -2.921 -0.669 -7.716 -0.236 -7.611 -1.109 -7.202 -3.179 1.493 -6.345 1.455 -11.99 3.767 -1.44 0.59 -1.474 0.545 -1.603 -0.922 -0.134 -1.527 0.211 -0.388 5.254 -2.24 11.682 -4.289 8.468 1.084 8.399 -11.287 -0.002 -0.341 -0.058 -0.527 -0.568 -0.327 -5.081 1.992 -6.879 1.291 -12.015 3.35 -1.616 0.648 -1.654 0.588 -1.801 -1.1 -0.161 -1.85 0.582 -0.748 10.581 -4.234 3.744 -1.305 3.696 -0.804 3.691 -1.79 -0.033 -7.019 -1.18 -6.552 0.476 -6.983 1.02 -0.266 1.579 0.141 1.674 1.22 0.148 1.685 0.292 3.373 0.412 5.062 0.06 0.848 -0.292 0.629 7.582 -1.69 4.944 -1.456 4.731 -1.315 4.964 -1.385 1.857 -0.551 1.471 -0.136 1.362 -7.19 -0.009 -0.57 1.14 -1.263 1.656 -0.997 0.276 0.142 0.135 0.414 0.14 0.614 0.149 5.98 -0.221 6.562 0.939 6.244 12.261 -3.354 11.169 -3.362 12.235 -3.464 1.053 -0.1 1.333 -0.794 1.492 -3.566 0.023 -0.4 0.57 -4.27 0.948 -4.397 2.992 -1.005 3.057 -1.113 2.774 -0.225 -0.498 1.563 -0.527 3.204 -0.826 4.8 -0.551 2.943 -0.297 2.215 7.662 -0.267 0.599 -0.187 1.257 -0.183 2.02 -0.634Z" stroke-width="1"></path><path id="vector_58" fill="#114c8d" d="M166.026 83.473c-20.077 9.208 -33.972 10.963 -58.704 18.675 -11.476 3.578 -2.544 5.745 -56.05 -8.346a98.963 98.963 0 0 1 -5.739 -1.681c-1.216 -0.4 -1.51 -2.732 -0.505 -3.522 3.458 -2.72 39.159 -7.414 63.434 -14.528 5.14 -1.506 6.551 -2.379 20.496 0.419 23.428 4.7 23.847 2.711 32.13 4.964 3.624 0.986 4.137 0.877 5.076 1.645 0.938 0.767 0.926 1.886 -0.138 2.374Z" stroke-width="1"></path><path id="vector_59" fill="#114c8d" d="M165.932 84.962c-5.421 20.434 -8.608 29.526 -10.779 36.678 -4.202 13.847 -0.281 10.866 -21.119 16.605 -27.175 7.484 -30.329 8.892 -33.984 8.513 -6.805 -0.705 -42.032 -12.609 -43.112 -13.094 -2.398 -1.078 -3.179 -6.563 -3.969 -10.318 -1.155 -5.49 -5.93 -26.716 -6.995 -29.77 0.621 0.051 3.349 0.488 3.366 1.122 0.049 1.841 2.644 8.442 4.127 18.183 0.325 2.135 0.457 7.131 2.645 16.487 0.385 1.645 1.431 2.516 2.95 2.898 33.948 8.548 39.048 12.233 39.011 7.714 -0.006 -0.728 -2.319 -21.168 -2.8 -30.489 -0.158 -3.061 -0.861 -3.812 0.258 -3.624 0.757 0.127 1.492 0.429 2.28 0.358 0.318 -0.028 0.295 0.209 0.296 0.401 0 0.022 1.442 20.659 1.503 21.275 1.55 15.826 -0.105 14.664 8.606 13.159 3.962 -0.684 32.261 -7.585 39.374 -9.82 4.145 -1.302 2.984 -3.847 6.402 -13.996 3.32 -9.855 6.374 -20.98 8.727 -29.804 0.222 -0.833 -0.513 -1.197 1.182 -1.756 0.663 -0.219 1.236 -0.706 2.032 -0.72l-0.001 -0.002Z" stroke-width="1"></path><path id="vector_60" fill="#ffffff" d="M82.416 91.133c-3.194 0.253 -6.266 1.134 -9.377 1.819 -4.027 0.887 -4.165 0.547 -6.316 -0.073 -13.462 -3.883 -13.602 -2.035 -6.507 -4.105 7.348 -2.144 19.657 -4.14 20.946 -4.492 1.184 -0.324 1.557 5.087 1.692 6.378 0.035 0.332 -0.107 0.448 -0.439 0.474l0.001 -0.001Z" stroke-width="1"></path><path id="vector_61" fill="#ffffff" d="M79.798 96.382c1.153 -0.447 2.203 -0.372 3.183 -0.659 0.185 -0.054 0.418 -0.113 0.476 0.178 0.357 1.782 0.391 1.378 -3.659 0.481Z" stroke-width="1"></path><path id="vector_62" fill="#ffffff" d="M99.971 98.787c-3.691 0.675 -1.619 1.295 -6.808 0.505 -4.472 -0.68 -4.462 -0.728 -4.557 -1.416 -0.425 -3.091 -0.795 -3.286 0.156 -3.402 1.547 -0.189 9.786 -1.683 11.494 -2.204 0 5.859 0.977 6.286 -0.285 6.517Z" stroke-width="1"></path><path id="vector_63" fill="#ffffff" d="M88.17 90.192c-1.069 0.303 -0.558 -0.579 -0.746 -6.88 -0.011 -0.384 -0.044 -0.207 8.631 -1.915 2.87 -0.565 3.083 -0.968 3.195 -0.289 1.519 9.241 2.361 5.278 -11.08 9.084Z" stroke-width="1"></path><path id="vector_64" fill="#114c8d" d="M112.727 85.935c-0.006 1.73 0.857 2.688 -0.837 3.018 -2.032 0.396 -5.674 1.28 -7.74 1.52 -0.441 0.05 -0.392 0.311 -0.365 0.61 0.658 7.336 0.964 6.478 -1.017 7.1 -0.813 0.256 -1.235 -0.059 -1.271 -0.942 -0.041 -1.004 -0.394 -5.264 -0.866 -5.577 -0.472 -0.313 -0.476 -0.373 -3.691 0.288 -9.795 2.015 -10.272 1.338 -9.851 3.003 0.218 0.862 0.304 1.756 0.472 2.631 0.081 0.418 0.042 0.68 -0.479 0.55 -3.12 -0.777 -2.336 -0.409 -2.794 -1.83 -0.174 -0.539 0.193 -1.314 -0.287 -1.625 -0.448 -0.29 -1.071 0.178 -1.594 0.356 -1.423 0.486 -2.936 0.38 -4.379 0.73 -0.594 0.145 -0.359 0.157 -6.489 -1.505 -0.131 -0.036 -0.285 -0.078 -0.245 -0.314 1.08 -0.1 11.97 -2.146 11.995 -2.153 0.261 -0.072 0.491 -0.1 0.461 -0.476 -0.158 -1.988 -0.125 -3.996 -0.717 -5.935 -0.138 -0.452 -0.553 -0.946 -0.347 -1.35 0.209 -0.413 0.848 -0.192 1.287 -0.308 0.396 -0.105 2.242 -0.519 2.651 -0.505 -0.572 0.712 -0.122 6.422 -0.02 7.333 0.125 1.115 0.534 0.434 10.398 -1.414 1.153 -0.216 2.271 -0.624 3.419 -0.888 0.461 -0.106 0.57 -0.283 0.572 -0.748 0.029 -6.12 -1.817 -7.05 -0.076 -7.239 1.496 -0.163 2.591 -1.198 2.513 -0.122 -0.165 2.271 0.086 4.535 0.125 6.803 0.017 1.022 0.757 0.221 1.805 0.198 3.555 -0.077 7.369 -1.794 7.367 -1.209Z" stroke-width="1"></path><path id="vector_65" fill="#ffffff" d="M112.097 95.539c-5.117 1.161 -6.701 2.587 -6.788 1.516 -0.469 -5.808 -0.666 -5.713 -0.158 -5.824 2.433 -0.532 4.862 -1.082 7.291 -1.627 0 5.939 0.154 5.822 -0.345 5.935Z" stroke-width="1"></path><path id="vector_66" fill="#ffffff" d="M113.063 77.518c-0.046 2.155 0.055 4.312 -0.154 6.467 -0.106 1.095 -0.095 0.601 -7.602 2.427 -0.548 0.133 -0.701 -0.02 -0.761 -0.525a28.625 28.625 0 0 1 -0.189 -3.524c0.01 -2.636 -0.156 -2.959 0.521 -3.163 8.111 -2.452 8.204 -2.562 8.186 -1.681l-0.001 -0.001Z" stroke-width="1"></path><path id="vector_67" fill="#114c8d" d="M117.952 78.765c-0.094 3.471 -0.523 6.926 -0.574 10.405 -0.111 7.464 0.002 4.296 -3.914 6.077 0.129 -4.109 0.206 -8.123 0.565 -12.126 0.455 -5.062 -0.626 -6.799 0.955 -6.62 0.318 0.035 2.184 -0.328 2.95 0.244 0.648 0.483 0.036 1.337 0.018 2.02Z" stroke-width="1"></path><path id="vector_68" fill="#ffffff" d="M156.852 82.936c-2.006 0.795 -4.247 0.483 -6.251 1.663 -0.022 -0.902 0.378 -1.496 0.499 -2.155 0.069 -0.374 0.042 -0.256 5.752 0.492Z" stroke-width="1"></path><path id="vector_69" fill="#114c8d" d="M149.439 84.357c-0.08 0.986 -1.845 0.71 -3.041 1.454 -0.368 0.23 -0.586 0.127 -0.459 -0.356 1.023 -3.889 0.898 -4.039 1.523 -3.889 1.166 0.281 2.163 0.158 2.491 0.634 0.345 0.501 -0.452 1.39 -0.514 2.157Z" stroke-width="1"></path><path id="vector_70" fill="#ffffff" d="M145.839 81.93c-1.347 4.728 -1.08 4.44 -1.799 4.679 -3.572 1.189 -2.571 0.855 -3.662 0.715 -6.821 -0.876 -6.582 -0.735 -6.316 -1.661 1.705 -5.935 1.311 -6.12 2.037 -5.986 10.178 1.874 10.024 1.554 9.739 2.253h0.001Z" stroke-width="1"></path><path id="vector_71" fill="#114c8d" d="M128.154 91.387c0.338 -2.233 0.541 -2.271 -0.16 -2.484 -9.256 -2.818 -9.6 -1.56 -9.441 -2.772 0.085 -0.65 -0.109 -1.581 0.247 -1.888 0.414 -0.356 1.198 0.247 1.832 0.39 8.616 1.94 8.516 2.313 8.706 1.353 1.415 -7.134 1.147 -7.126 1.928 -7.003 3.257 0.511 3.539 0.089 3.226 1.222 -1.895 6.845 -2.395 7.487 -1.249 7.366 1.825 -0.191 3.513 0.65 5.325 0.654 -3.433 1.158 -6.837 2.35 -10.414 3.162Z" stroke-width="1"></path><path id="vector_72" fill="#ffffff" d="M127.112 91.624s-2.841 0.721 -8.223 2.276c-0.664 0.192 -0.683 0.094 -0.659 -0.914 0.006 -0.28 0.175 -4.144 0.214 -4.667 0.041 -0.54 0.175 -0.522 0.552 -0.461a71.09 71.09 0 0 1 7.979 1.77c0.491 0.139 0.439 0.111 0.137 1.996Z" stroke-width="1"></path><path id="vector_73" fill="#ffffff" d="M129.584 79.615c-1.212 5.003 -0.904 5.868 -1.485 5.583 -8.611 -2.046 -9.388 -1.603 -9.294 -2.705 0.464 -5.419 0.14 -5.62 1.04 -5.465 9.893 1.712 10.025 1.407 9.739 2.587Z" stroke-width="1"></path><path id="vector_74" fill="#ffffff" d="M144.065 110.314c-0.062 0.639 -0.122 0.352 -6.146 2.124 -6.32 1.859 -4.415 2.958 -4.606 -4.708 -0.023 -0.931 -0.17 -0.5 10.97 -3.947 1.311 -0.406 0.281 1.388 -0.218 6.531Z" stroke-width="1"></path><path id="vector_75" fill="#ffffff" d="M129.486 109.21c-0.639 8.506 1.659 4.626 -5.385 7.564 -1.814 0.757 -3.704 1.269 -5.528 1.979 -0.572 0.223 -0.657 0.114 -0.67 -0.472 -0.145 -6.28 -0.534 -6.196 0.078 -6.382 11.785 -3.592 11.602 -3.989 11.505 -2.689Z" stroke-width="1"></path><path id="vector_76" fill="#ffffff" d="M128.782 126.487c-2.288 0.621 -4.537 1.375 -6.859 1.874 -2.919 0.627 -3.403 1.516 -3.451 0.614 -0.285 -5.456 -0.752 -5.827 0.301 -6.053 3.335 -0.715 6.443 -2.154 9.717 -3.072 1.015 -0.285 0.915 0.033 0.89 0.71 -0.143 3.958 0.639 5.59 -0.599 5.926l0.001 0.001Z" stroke-width="1"></path><path id="vector_77" fill="#ffffff" d="M143.223 115.447c-0.227 1.774 -0.587 3.5 -0.628 5.231 -0.035 1.489 -0.607 1.993 -2.026 2.373 -7.004 1.875 -7.279 2.42 -7.255 1.164 0.101 -5.218 -0.583 -5.729 0.581 -6.064 0.864 -0.249 7.952 -2.45 9.328 -2.704Z" stroke-width="1"></path><path id="vector_78" fill="#ffffff" d="M77.803 117.279c-2.636 -1.12 -12.321 -3.497 -12.426 -4.35 -0.68 -5.519 -0.966 -5.703 -0.176 -5.401 3.494 1.335 11.313 3.602 12.03 3.744 0.781 0.156 0.572 0.079 0.572 6.007Z" stroke-width="1"></path><path id="vector_79" fill="#ffffff" d="M77.826 128.227c-2.917 -0.789 -9.679 -3.03 -9.702 -3.039 -0.473 -0.193 -0.787 -0.363 -0.87 -0.888 -0.337 -2.117 -0.862 -4.205 -1.013 -6.483 12.475 4.19 12.145 3.807 12.148 4.989 0.013 5.274 0.57 5.727 -0.563 5.421Z" stroke-width="1"></path><path id="vector_80" fill="#ffffff" d="M116.238 186.68c-1.585 0.084 -3.158 -1.694 -3.157 -3.373 0.001 -1.24 1.534 -2.794 2.818 -2.834 4.33 -0.135 5.077 5.955 0.339 6.207Z" stroke-width="1"></path><path id="vector_81" fill="#ffffff" d="M158.328 170.912c0.053 1.347 -1.554 2.5 -3.112 2.404 -1.296 -0.08 -2.695 -1.736 -2.638 -3.117 0.11 -2.638 5.557 -4.185 5.75 0.712v0.001Z" stroke-width="1"></path><path id="vector_82" fill="#da5b5b" d="M184.46 37.527c-0.103 -0.582 -0.696 -1.003 -1.695 -1.315 -3.813 -1.193 -48.135 -3.954 -51.38 -3.298 -1.612 0.326 -2.27 1.003 -2.67 2.124 -0.688 1.93 -1.271 3.434 0.252 4.5 1.721 1.203 3.771 0.827 3.553 1.511 -3.055 9.56 -3.515 8.384 -4.354 11.665 -0.684 2.674 -5.844 18.332 -5.85 18.357 -0.321 1.186 -0.997 0.84 -2.743 0.54 -5.973 -1.033 -8.711 0.532 -14.581 2.043 -48.706 12.53 -66.728 10.57 -60.881 18.602 1.147 1.576 1.563 3.31 5.463 20.202 3.964 17.166 3.206 20.713 8.047 22.904 2.592 1.173 33.092 10.951 41.01 12.232 1.887 0.305 3.364 0.368 4.181 0.071 -0.076 1.525 -0.525 2.91 -0.87 4.319 -0.067 0.272 -0.225 0.387 -0.476 0.414 -1.414 0.152 -7.536 2.925 -7.398 8.914 0.018 0.788 -0.301 0.761 -3.123 1.309 -11.765 2.283 -11.514 2.714 -11.816 2.079 -1.435 -3.011 -8.485 -8.536 -16.442 -1.202 -3.519 3.244 -4.388 10.734 -0.813 14.986 3.996 4.753 9.126 5.073 13.292 2.671 0.75 -0.432 1.327 -1.04 2.01 -1.527 2.673 -1.905 1.305 -2.981 2.878 -2.424 17.431 6.172 16.449 6.064 20.924 7.502 0.948 0.305 0.4 0.739 1.017 2.413 4.599 12.47 19.601 8.843 21.278 -1.828 0.37 -2.355 1.208 -1.918 2.159 -2.293 12.489 -4.931 7.03 -2.782 12.571 -4.719 5.514 -1.928 5.157 -2.7 6.198 -1.309 5.849 7.821 17.792 3.237 17.823 -7.113 0.016 -5.343 -3.74 -10.099 -9.577 -10.222 -0.414 -0.009 -0.508 -0.189 -0.63 -0.521 -0.007 -0.022 -2.461 -8.371 -3.586 -13.219 -2.3 -9.913 -2.892 -9.724 -1.91 -9.989 7.519 -2.026 5.991 -1.322 10.668 -16.794 0.754 -2.494 5.097 -14.905 9.9 -33.735 0.176 -0.69 0.666 -1.246 0.862 -1.866 1.193 -3.78 -2.873 -3.337 -1.785 -4.906 0.138 -0.198 1.107 -4.174 2.021 -6.574 0.568 -1.49 6.745 -17.749 7.353 -19.445 3.158 -8.81 2.13 -8.795 3.417 -8.713 3.591 0.23 6.975 0.86 5.706 -6.345l-0.003 0Zm-61.186 34.167c6.059 -18.674 4.724 -15.269 6.008 -18.717 2.799 -7.515 3.311 -7.534 4.018 -10.92 0.304 -1.457 0.697 -1.128 2.139 -1.074 2.916 0.11 0.179 1.011 -1.175 7.625 -0.005 0.022 -4.964 17.818 -6.83 23.666 -0.131 0.412 -0.309 0.551 -0.73 0.474 -3.694 -0.677 -3.651 -0.375 -3.43 -1.054Zm15.572 -30.558c1.565 0.15 9.193 -0.525 33.105 2.28 1.371 0.161 -9.326 27.217 -10.846 33.826 -0.298 1.298 -0.114 0.416 -11.251 -0.668 -6.447 -0.628 -13.799 -1.724 -20.897 -3.435 -0.857 -0.207 -0.547 0.32 2.573 -10.605 0.018 -0.062 3.373 -13.51 5.864 -19.67 0.107 -0.265 0.305 -0.543 0.285 -0.8 -0.072 -0.936 0.445 -0.997 1.167 -0.928ZM95.663 158.888c1.097 -3.062 4.42 -5.849 8.065 -5.358 -7.15 1.995 -8.03 14.038 -0.265 15.783 -6.564 0.722 -9.325 -6.169 -7.8 -10.425Zm10.009 5.697c1.801 0.732 4.277 -0.027 3.395 1.171 -2.272 3.086 -2.905 2.565 -3.985 2.576 -4.78 0.434 -6.714 -4.769 -5.995 -7.56 0.95 -3.687 1.687 -5.631 5.514 -6.278 3.072 -0.519 4.377 2.019 5.499 4.831 0.172 0.432 0.307 1.023 -0.628 0.853 -1.066 -0.195 -2.168 -0.122 -3.221 -0.481 -1.607 -0.547 -3.829 3.567 -0.579 4.888Zm-0.142 -1.3c-0.65 -0.258 -0.446 -0.931 -0.296 -1.445 0.169 -0.581 0.436 -1.159 1.207 -1.049 1.696 0.244 35.271 5.378 36.487 5.265 0.114 0.394 -0.112 0.552 -0.189 0.759 -0.247 0.661 -0.075 1.639 -0.677 1.946 -0.963 0.491 -6.253 -0.856 -20.561 -2.927 -9.586 -1.388 -7.132 -0.871 -11.291 -1.785 -2.625 -0.577 -1.96 0.317 -4.68 -0.764Zm37.235 1.679c-0.098 -0.007 -30.554 -4.328 -31.113 -4.479 -1.269 -0.343 0.042 -3.359 -3.226 -6.004 -0.251 -0.203 -0.296 -0.614 -0.748 -0.641 -0.928 -0.055 1.086 -4.034 1.46 -6.629 0.278 -1.93 1.38 -0.923 28.742 -8.971 1.552 -0.456 2.246 3.007 6.678 19.991 1.143 4.379 1.282 3.947 0.735 4.448 -1.742 1.592 -1.144 2.38 -2.529 2.286l0.001 -0.001Zm-36.226 -12.535c-0.241 0.791 -0.009 0.246 -2.912 -0.098 -1.329 -0.158 0.088 -1.411 0.194 -4.463 0.016 -0.47 0.04 -0.347 4.241 -1.144 0.022 0.962 -1.516 5.682 -1.523 5.705Zm-26.447 13.613c0.309 -0.309 6.928 -1.511 7.934 -1.674 5.463 -0.883 6.26 -1.685 6.195 -0.672 -0.076 1.184 1.155 1.526 0.158 1.712 -9.039 1.689 -3.205 0.416 -13.152 2.765 -0.83 0.196 -0.708 -0.205 -0.801 -0.677 -0.1 -0.503 -0.779 -1.008 -0.334 -1.454Zm-17.059 -0.623c2.191 -3.366 6.454 -4.648 8.827 -3.918 -1.503 0.209 -2.696 1.064 -3.929 1.803 -2.797 1.677 -7.271 14.779 3.442 17.664 -7.867 1.151 -13.76 -7.221 -8.339 -15.55l-0.001 0.001Zm14.708 11.494c-1.25 2.408 -3.602 3.638 -7.927 2.124 -3.865 -1.354 -6.015 -8.508 -1.792 -14.085 1.325 -1.75 3.183 -1.884 4.475 -2.28 2.502 -0.767 3.61 0.426 5.1 2.157 0.801 0.931 1.386 1.999 1.578 3.319 0.416 2.849 2.043 2.938 -5.089 -0.096 -2.055 -0.874 -2.296 -0.223 -2.654 0.623 -0.448 1.059 -0.821 2.106 -0.835 3.292 -0.023 1.948 -0.124 1.809 6.972 4.461 0.356 0.133 0.287 0.26 0.171 0.483l0.001 0.002Zm24.089 4.085c-0.323 0.853 -0.305 1.745 -0.35 2.745 -7.398 -2.411 -24.893 -9.089 -28.337 -10.089 -1.955 -0.567 -1.662 -2.073 -0.862 -3.945 0.885 -2.071 0.161 -0.456 18.246 6.358 3.134 1.181 6.412 2.682 10.868 4.109 0.461 0.148 0.594 0.398 0.434 0.821l0.001 0.001Zm4.817 10.663c-8.365 -6.652 -1.719 -20.124 7.357 -18.448 -9.005 1.333 -10.389 18.501 -0.781 19.877 0.367 0.053 0.414 0.165 0.617 0.338 -2.729 0.414 -5.104 -0.106 -7.193 -1.767Zm15.59 -7.645c-0.292 3.368 -2.358 5.681 -3.862 7.3 -1.558 1.676 -7.532 0.596 -8.744 -1.899 -0.398 -0.819 -0.953 -1.547 -1.329 -2.422 -1.221 -2.84 -0.113 -7.057 1.24 -9.216 1.398 -2.231 3.081 -2.942 5.309 -3.406 2.516 -0.524 3.426 -0.091 5.369 2.531 1.376 1.857 2.106 3.897 2.017 7.112Zm0.118 -6.38c-2.368 -4.671 -7.317 -6.681 -10.83 -5.966 -3.974 0.808 -7.831 3.364 -8.983 7.119 -0.258 0.842 0.903 1.348 -19.904 -7.106 -0.706 -0.287 -1.984 -0.218 -1.645 -1.534 -0.178 -0.63 0.076 -0.819 0.683 -0.957 3.962 -0.898 7.92 -1.8 11.932 -2.458 1.08 -0.177 0.897 -1.066 2.389 0.732 1.516 1.828 3.315 3.201 5.873 3.166 4.53 -0.063 4.549 -1.092 6.71 -2.602 1.559 -1.09 1.32 -2.76 2.4 -2.602 0.024 0 16.16 2.21 26.545 4.256 1.692 0.333 4.568 -0.06 4.608 0.761 0.047 0.948 -0.44 0.411 -12.469 4.786 -2.406 0.875 -6.902 3.205 -7.308 2.404l-0.001 0.001Zm20.08 -2.344c-1.846 0.578 -3.569 1.473 -5.39 2.104 -11.562 4.006 -13.448 5.634 -13.526 4.773 -0.248 -2.718 -1.098 -3.256 -0.167 -3.415 1.333 -0.228 18.584 -7.251 18.945 -6.258 0.272 0.748 0.187 1.603 0.706 2.217 0.007 0.447 -0.307 0.497 -0.568 0.579Zm14.608 2.462c-0.9 0.761 -4.796 0.84 -7.01 -1.224 -2.543 -2.37 -3.475 -7.727 0.154 -12.297 1.345 -1.694 3.738 -2.001 3.76 -2.01 5.055 -2.059 10.938 8.905 3.097 15.532l-0.001 -0.001Zm-3.479 -16.638c-6.28 1.54 -8.725 9.075 -5.356 14.973 1.568 2.745 4.713 2.887 5.007 3.304 -5.91 1.781 -13.222 -6.314 -8.246 -14.256 1.756 -2.803 5.149 -4.795 8.595 -4.02v-0.001Zm-5.323 -10.158c1.866 7.299 3.215 8.853 2.095 8.958 -2.589 0.242 -3.64 2.213 -3.911 1.142 -3.622 -14.268 -5.36 -21.096 -6.489 -22.667 -0.251 -0.35 -0.345 -0.585 0.278 -0.728 1.632 -0.375 3.161 -0.97 4.196 -1.184 0.855 -0.178 1.559 5.59 3.831 14.479Zm6.912 -29.316c-4.202 13.847 -0.281 10.866 -21.119 16.605 -27.175 7.484 -30.329 8.892 -33.984 8.513 -6.805 -0.705 -42.032 -12.609 -43.112 -13.094 -2.398 -1.078 -3.179 -6.563 -3.969 -10.318 -1.155 -5.49 -5.93 -26.716 -6.995 -29.77 0.621 0.051 3.349 0.488 3.366 1.122 0.049 1.841 2.644 8.442 4.127 18.183 0.325 2.135 0.457 7.131 2.645 16.487 0.385 1.645 1.431 2.516 2.95 2.898 33.948 8.548 39.048 12.233 39.011 7.714 -0.006 -0.728 -2.319 -21.168 -2.8 -30.489 -0.158 -3.061 -0.861 -3.812 0.258 -3.624 0.757 0.127 1.492 0.429 2.28 0.358 0.318 -0.028 0.295 0.209 0.296 0.401 0 0.022 1.442 20.659 1.503 21.275 1.55 15.826 -0.105 14.664 8.606 13.159 3.962 -0.684 32.261 -7.585 39.374 -9.82 4.145 -1.302 2.984 -3.847 6.402 -13.996 3.32 -9.855 6.374 -20.98 8.727 -29.804 0.222 -0.833 -0.513 -1.197 1.182 -1.756 0.663 -0.219 1.236 -0.706 2.032 -0.72 -5.421 20.433 -8.608 29.525 -10.779 36.677l-0.001 -0.001Zm-94.64 -19.12c-0.799 -4.448 -1.028 -5.138 -0.688 -5.098 2.903 0.342 2.295 0.011 2.807 2.55 0.249 1.232 0.473 2.463 0.501 3.723 0.013 0.577 -0.114 0.338 9.566 3.252 5.754 1.733 5.9 2.03 5.899 0.703 -0.002 -5.367 -0.775 -5.765 0.258 -5.51 1.99 0.493 2.016 0.436 2.048 0.984 0.381 6.471 0.236 6.303 0.828 6.425 3.329 0.682 6.518 1.896 9.824 2.662 2.295 0.532 2.752 0.363 2.758 1.643 0.007 1.405 0.053 1.307 -1.327 0.897 -11.093 -3.296 -5.397 -1.479 -11.031 -3.117a0.499 0.499 0 0 0 -0.638 0.479c-0.008 7.573 -0.133 7.596 1.069 7.97 1.574 0.49 11.765 3.84 12.322 3.929 0.516 0.082 0.774 0.345 0.786 0.919 0.012 0.568 0.194 1.129 0.116 1.759 -8.853 -3.023 -13.286 -4.536 -13.299 -4.539 -1.062 -0.403 -0.812 -0.058 -0.514 7.867 0.031 0.824 0.79 0.79 1.256 0.904 3.747 0.916 7.384 2.195 11.088 3.246 2.482 0.704 2.472 0.318 2.3 1.874 -0.035 0.321 0.336 0.415 -6.977 -1.763 -7.727 -2.301 -7.716 -2.691 -7.616 -1.311 0.288 3.976 0.761 4.437 -0.238 4.19 -1.632 -0.404 -1.635 -0.385 -1.699 -2.093 -0.177 -4.762 0.837 -3.36 -7.288 -5.808 -7.376 -2.222 -5.791 -2.934 -5.091 3.301 0.13 1.155 -1.806 0.357 -2.413 0.225 -0.203 -0.044 -0.247 -0.191 -0.263 -0.383 -0.106 -1.287 -0.268 -2.571 -0.323 -3.86 -0.063 -1.485 -0.295 -1.372 -7.905 -3.388 -0.441 -0.117 -0.35 -0.111 -0.826 -2.536 0.327 -0.205 0.058 -0.182 6.373 1.91 2.565 0.85 1.137 -1.511 0.516 -8.301 -0.068 -0.741 -0.313 -1.273 -5.367 -2.66 -0.853 -0.234 -1.621 -0.745 -2.527 -0.784 -0.361 -0.015 -0.323 -0.238 -0.499 -1.607 -0.082 -0.058 -0.107 -0.122 -0.018 -0.194 0.158 0.238 6.739 1.988 7.302 2.257 1.402 0.67 -0.337 -4.773 -0.619 -7.947 -0.062 -0.703 -0.864 -0.284 -5.712 -2.139 -0.797 -0.305 -1.585 -0.631 -2.451 -0.717 -0.332 -0.033 -0.922 -1.209 -0.757 -1.456 0.169 -0.254 0.049 -0.195 4.902 1.213 3.604 1.046 3.733 1.258 3.566 0.327l0.001 0.002Zm2.723 -4.43c5.269 1.287 5.983 1.801 13.197 3.462 0.608 0.14 0.922 0.358 0.942 1.044 0.039 1.398 0.302 2.785 0.314 4.19 0.006 0.793 0.445 0.703 -7.313 -1.63 -6.382 -1.919 -6.23 -1.988 -6.293 -2.38 -0.248 -1.522 -0.542 -3.034 -0.847 -4.686Zm19.12 4.92c4.66 0.804 6.077 1.39 10.541 2.362 1.033 0.225 0.784 0.323 1.229 4.802 0.073 1.614 0.084 1.559 -1.115 1.291a56.659 56.659 0 0 1 -6.663 -1.906c-2.54 -0.902 -3.965 -0.501 -4.069 -1.487 -0.613 -5.777 -0.764 -5.207 0.077 -5.062Zm12.253 14.018c0.45 5.766 0.603 4.802 0.663 5.799 0.042 0.703 0.583 0.78 -6.647 -1.77 -5.612 -1.979 -4.722 -1.559 -5.652 -1.919 -0.78 -0.302 -0.543 -0.011 -0.543 -6.318 1.866 0.937 12.043 2.468 12.179 4.208Zm1.367 16.485c-0.425 0.255 -1.329 -0.253 -2.008 -0.461 -3.109 -0.953 -6.21 -1.932 -9.316 -2.896 -1.687 -0.524 -1.815 -0.138 -1.897 -1.852 -0.256 -5.354 -0.27 -4.983 0.356 -4.793 0.022 0.007 1.795 0.524 12.021 4.027 0.944 0.323 0.666 1.369 0.957 4.012 -0.142 0.637 0.498 1.597 -0.113 1.963Zm-12.99 0.601c0.066 -0.857 -0.321 -0.668 5.637 1.031 6.451 1.839 6.783 1.888 7.455 1.939 0.565 0.043 0.412 0.049 0.899 2.625 -0.031 1.968 -1.975 1.1 -4.343 0.452 -9.702 -2.655 -9.679 -2.32 -9.512 -3.228 0.176 -0.959 -0.208 -1.872 -0.136 -2.818v-0.001Zm-4.804 2.202c-7.275 -2.154 -4.632 -1.465 -8.796 -2.569 -0.893 -0.237 -0.632 -0.191 -1.402 -4.762 10.968 3.277 10.807 2.952 10.815 3.724 0.032 3.304 0.465 3.928 -0.617 3.607Zm-14.844 -4.029c-6.303 -1.8 -5.574 -0.325 -6.888 -6.18 0.51 0.122 0.928 0.203 1.336 0.325 5.75 1.727 5.71 1.338 5.748 2.304 0.116 2.93 0.846 3.848 -0.196 3.551Zm-7.954 -12.153c-0.634 -6.055 -0.741 -3.804 -0.476 -6.238 5.654 1.952 3.136 1.191 5.697 1.877 1.436 0.384 1.155 0.893 2.03 7.834 -5.788 -1.81 -5.356 -1.786 -5.788 -1.812 -1.113 -0.066 -1.365 -0.724 -1.463 -1.661Zm-1.596 -11.235c-0.66 -4.499 -1.899 -5.867 -0.078 -5.189 7.572 2.818 5.962 0.777 7.206 7.38 0.071 1.158 -0.554 0.646 -0.879 0.59 -1.801 -0.309 -3.42 -1.229 -5.2 -1.594 -0.724 -0.148 -0.941 -0.456 -1.049 -1.187Zm4.78 -7.364c-6.554 -1.966 -6.315 -1.814 -6.641 -1.623 -0.361 0.212 -1.527 -4.656 -1.527 -5.178 0.601 0.138 8.167 1.941 8.25 2.645 0.261 2.217 1.305 4.572 -0.082 4.156Zm55.445 6.832c-0.033 -7.019 -1.18 -6.552 0.476 -6.983 1.02 -0.266 1.579 0.141 1.674 1.22 0.148 1.685 0.292 3.373 0.412 5.062 0.06 0.848 -0.292 0.629 7.582 -1.69 4.944 -1.456 4.731 -1.315 4.964 -1.385 1.857 -0.551 1.471 -0.136 1.362 -7.19 -0.009 -0.57 1.14 -1.263 1.656 -0.997 0.276 0.142 0.135 0.414 0.14 0.614 0.149 5.98 -0.221 6.562 0.939 6.244 12.261 -3.354 11.169 -3.362 12.235 -3.464 1.053 -0.1 1.333 -0.794 1.492 -3.566 0.023 -0.4 0.57 -4.27 0.948 -4.397 2.992 -1.005 3.057 -1.113 2.774 -0.225 -0.498 1.563 -0.527 3.204 -0.826 4.8 -0.551 2.943 -0.297 2.215 7.662 -0.267 0.599 -0.187 1.256 -0.183 2.019 -0.634 -1.055 3.248 -0.902 3.106 -1.256 3.17 -2.838 0.517 -5.496 1.662 -8.284 2.362 -0.942 0.236 -1.08 0.552 -1.963 6.046 -0.478 2.972 -1.164 3.963 0.018 3.642 5.459 -1.48 5.933 -1.658 7.355 -2.081 -0.14 2.678 -0.761 1.892 -8.072 4.303 -0.41 0.135 -0.679 0.572 -0.721 1.022 -0.952 10.217 -4.187 9.637 5.158 7.13 -0.109 0.243 -0.191 0.338 -0.191 0.436 -0.014 2.549 -2.772 1.979 -5.973 3.275 -1.06 0.429 -0.814 0.908 -1.32 4.964 -0.187 1.498 -0.196 1.498 -1.812 1.719 0.145 -1.436 0.066 -2.867 0.43 -4.265 0.734 -2.825 -0.474 -1.266 -9.599 0.77 -0.759 0.169 -0.838 0.047 -0.552 5.363 0.028 0.528 -0.116 0.76 -0.641 0.875 -1.658 0.363 -1.648 0.378 -1.623 -1.385 0.05 -3.584 0.275 -4.624 -0.87 -4.029 -0.308 0.16 -10.732 2.645 -11.068 2.723 -0.955 0.22 -0.902 0.281 -0.427 5.361 0.091 0.975 -0.425 0.744 -0.902 0.853 -1.351 0.309 -1.358 0.312 -1.46 -1.086 -0.082 -1.115 -0.194 -2.233 -0.207 -3.353 -0.012 -1.006 -0.321 -1.095 -4.648 0.174 -8.577 2.515 -9.455 3.466 -9.501 2.166 -0.014 -0.394 -0.225 -0.789 0.519 -0.882 2.074 -0.257 4.049 -0.969 6.062 -1.509 6.712 -1.804 7.325 -1.474 7.199 -2.921 -0.669 -7.716 -0.236 -7.611 -1.109 -7.202 -3.179 1.493 -6.345 1.455 -11.99 3.767 -1.44 0.59 -1.474 0.545 -1.603 -0.922 -0.134 -1.527 0.211 -0.388 5.254 -2.24 11.682 -4.289 8.468 1.084 8.399 -11.287 -0.002 -0.341 -0.058 -0.527 -0.568 -0.327 -5.081 1.992 -6.879 1.291 -12.015 3.35 -1.616 0.648 -1.654 0.588 -1.801 -1.1 -0.161 -1.85 0.582 -0.748 10.581 -4.234 3.744 -1.305 3.697 -0.804 3.692 -1.79Zm15.556 -5.654c0.031 1.282 -1.153 0.452 -8.778 3.326 -0.902 0.34 -1.963 0.318 -2.896 0.712 -0.318 0.134 -0.45 0.011 -0.474 -0.347 -0.388 -5.75 -1.245 -5.473 -0.296 -5.757 10.972 -3.288 9.321 -2.897 10.955 -3.353 2.04 -0.568 1.338 -0.869 1.489 5.419Zm17.055 -10.465c-0.354 2.04 -0.811 3.965 -0.868 5.946 -0.025 0.866 -8.188 2.639 -11.796 3.764 -0.721 0.225 -0.461 0.065 -0.652 -5.548 -0.023 -0.672 -0.12 -0.385 13.317 -4.163l-0.001 0.001Zm4.283 3.444c0.753 -5.258 0.775 -5.084 1.155 -5.209 2.711 -0.893 8.141 -3.063 9.682 -3.749 -1.213 5.334 -1.217 4.775 -1.667 6.792 -0.258 1.153 -0.107 0.813 -7.62 3.041 -1.71 0.507 -1.772 0.681 -1.549 -0.875h-0.001Zm5.073 11.302c-0.202 0.63 0.147 0.44 -6.456 2.182 -1.327 0.35 -0.895 0.345 0.312 -6.251 0.191 -1.044 -0.233 -0.621 7.941 -3.148 0.492 -0.152 0.55 -0.107 -1.797 7.217Zm-1.585 4.951c-0.548 2.489 -1.463 4.845 -2.157 7.264 -0.162 0.566 -0.456 0.813 -1.113 0.931 -3.404 0.611 -4.778 1.848 -4.619 0.581 0.271 -2.16 0.895 -4.254 1.149 -6.418 0.063 -0.541 -0.073 -0.343 6.741 -2.357l-0.001 -0.001Zm-3.537 12.373c-0.443 1.231 -0.98 5.2 -2.26 5.463 -4.125 0.847 -3.456 2.756 -2.823 -3.5 0.101 -0.995 2.231 -0.779 5.082 -1.963h0.001Zm-16.816 4.57c3.399 -0.686 8.011 -2.5 7.743 -1.485 -0.674 2.546 0.262 4.269 -1.126 4.608 -6.751 1.649 -6.923 2.255 -6.879 0.944 0.113 -3.341 -0.486 -3.916 0.262 -4.067Zm-4.682 5.853c-0.31 0.525 -1.287 0.62 -2.015 0.761 -1.532 0.297 -2.976 0.932 -4.552 1.086 -2.743 0.269 -3.662 1.329 -3.695 0.147 -0.105 -3.749 -0.565 -4.011 0.178 -4.212 2.609 -0.703 2.762 -0.495 9.53 -2.304 0.835 -0.223 0.59 -0.158 0.59 2.248 0.022 0 0.302 1.701 -0.036 2.274Zm-14.853 3.833c-11.245 2.244 -9.815 2.028 -11.262 2.15 -1.492 0.421 -1.22 -0.833 -1.514 -2.395 -0.215 -1.142 -0.22 -1.133 0.873 -1.291 3.49 -0.504 11.771 -4.196 11.954 -2.76 0.163 1.275 0.051 2.58 0.412 3.836 0.102 0.356 -0.194 0.406 -0.463 0.46Zm-13.477 -5.207c-0.214 -4.791 -0.599 -4.94 0.085 -5.089 0.015 -0.003 4.181 -1.232 12.5 -3.687 0.427 1.854 0.27 3.755 0.494 5.621 0.069 0.577 -0.141 0.188 -6.672 2.117 -6.53 1.929 -6.375 1.747 -6.407 1.037v0.001Zm-0.69 -9.806c-0.177 -6.469 -0.964 -6.506 0.029 -6.716 1.614 -0.342 3.135 -1.006 4.713 -1.463 3.914 -1.134 3.57 -0.261 7.398 -1.75 0.625 -0.243 0.727 -0.607 0.98 4.423 0.177 3.531 0.48 1.817 -9.296 5.174 -1.445 0.496 -3.795 1.318 -3.822 0.332h-0.002Zm12.636 -15.837c-0.012 0.857 -13.132 4.559 -13.277 4.568 -0.456 -1.999 -0.371 -3.993 -0.628 -5.95 -0.054 -0.412 0.06 -0.508 0.412 -0.539 3.007 -0.266 13.019 -4.653 13.139 -3.562 0.201 1.823 0.381 3.644 0.354 5.483Zm53.189 -26.623c0.938 0.767 0.926 1.885 -0.138 2.373 -20.077 9.208 -33.972 10.963 -58.704 18.675 -11.476 3.578 -2.544 5.745 -56.05 -8.346a98.963 98.963 0 0 1 -5.739 -1.68c-1.216 -0.4 -1.51 -2.733 -0.505 -3.523 3.458 -2.72 39.159 -7.414 63.434 -14.528 5.14 -1.506 6.551 -2.379 20.496 0.42 23.428 4.7 23.847 2.71 32.13 4.963 3.624 0.986 4.137 0.878 5.076 1.646Zm-0.521 -5.467c-0.945 3.016 -0.802 3.61 -1.67 3.315 -1.893 -0.642 -2.104 -0.539 -1.961 -1.055 1.542 -5.588 8.291 -23.677 10.136 -29.884 1.251 -4.21 1.051 -4.702 1.821 -4.47 0.924 0.278 1.877 0.158 2.812 0.25 -0.679 5.611 -7.679 20.804 -11.137 31.844h-0.001Zm-6.658 -34.73c-30.409 -1.838 -30.762 -0.129 -29.216 -5.545 0.2 -0.7 0.719 -1.136 1.796 -1.366 3.232 -0.689 46.976 2.24 50.51 3.271 0.816 0.238 1.308 0.537 1.36 0.918 0.986 7.244 -1.414 4.115 -24.45 2.723Z" stroke-width="1"></path><path id="vector_83" fill="#da5b5b" d="M159.269 82.253c-0.261 0.155 -35.022 -5.577 -42.212 -6.888 -4.501 -0.82 -4.449 1.921 -37.573 8.152 -3.88 0.73 -21.24 4.194 -24.922 5.625 -1.978 0.77 -3.338 -1.5 -4.061 -0.76 -0.475 0.485 0.173 1.083 0.853 1.39 4.779 2.15 37.066 10.044 43.091 10.906 2.05 0.293 1.798 0.357 4.206 -0.135 20.186 -5.449 60.647 -16.924 61.763 -17.404 1.889 -0.812 0.56 -1.903 -1.146 -0.887l0.001 0.001Zm-40.465 0.24c0.464 -5.419 0.14 -5.62 1.04 -5.465 9.893 1.712 10.025 1.407 9.739 2.587 -1.212 5.003 -0.904 5.868 -1.485 5.583 -8.611 -2.046 -9.388 -1.603 -9.294 -2.705Zm-22.749 -1.097c2.87 -0.565 3.083 -0.968 3.195 -0.289 1.519 9.241 2.361 5.28 -11.08 9.085 -1.069 0.303 -0.558 -0.579 -0.746 -6.88 -0.011 -0.384 -0.044 -0.208 8.631 -1.916ZM66.723 92.878c-13.462 -3.883 -13.602 -2.035 -6.507 -4.105 7.348 -2.144 19.657 -4.14 20.946 -4.492 1.184 -0.324 1.557 5.087 1.692 6.378 0.035 0.332 -0.107 0.448 -0.439 0.474 -3.194 0.253 -6.266 1.134 -9.377 1.82 -4.027 0.886 -4.165 0.546 -6.316 -0.074l0.001 0Zm13.074 3.504c1.153 -0.447 2.203 -0.372 3.183 -0.659 0.185 -0.054 0.418 -0.113 0.476 0.178 0.357 1.782 0.391 1.378 -3.659 0.481Zm20.173 2.404c-3.691 0.675 -1.619 1.295 -6.808 0.505 -4.472 -0.68 -4.462 -0.728 -4.557 -1.416 -0.425 -3.09 -0.795 -3.286 0.156 -3.402 1.547 -0.189 9.786 -1.683 11.494 -2.204 0 5.86 0.977 6.286 -0.285 6.517Zm12.126 -3.248c-5.117 1.161 -6.701 2.587 -6.788 1.516 -0.469 -5.808 -0.666 -5.713 -0.158 -5.824 2.433 -0.532 4.862 -1.082 7.291 -1.627 0 5.94 0.154 5.822 -0.345 5.935Zm0.495 -6.993c-2.032 0.394 -6.376 1.686 -8.442 1.926 -0.441 0.051 -0.392 0.312 -0.365 0.61 0.658 7.337 0.964 6.48 -1.017 7.101 -0.813 0.256 -1.235 -0.059 -1.271 -0.942 -0.041 -1.004 -0.026 -5.238 -0.636 -5.657 -0.61 -0.419 -0.706 -0.293 -3.921 0.368 -9.795 2.015 -10.272 1.338 -9.851 3.003 0.218 0.862 0.304 1.756 0.472 2.631 0.081 0.418 0.042 0.68 -0.479 0.55 -3.12 -0.777 -2.336 -0.409 -2.794 -1.83 -0.174 -0.539 0.193 -1.314 -0.287 -1.625 -0.448 -0.29 -1.071 0.178 -1.594 0.356 -1.423 0.486 -2.936 0.38 -4.379 0.73 -0.594 0.145 -0.359 0.157 -6.489 -1.505 -0.131 -0.036 -0.285 -0.078 -0.245 -0.314 1.08 -0.1 11.97 -2.146 11.995 -2.153 0.261 -0.072 0.491 -0.1 0.461 -0.476 -0.158 -1.988 -0.125 -3.996 -0.717 -5.935 -0.138 -0.452 -0.553 -0.946 -0.347 -1.35 0.209 -0.413 0.848 -0.192 1.287 -0.308 0.396 -0.105 2.242 -0.519 2.651 -0.505 -0.572 0.712 -0.122 6.422 -0.02 7.333 0.125 1.115 0.534 0.434 10.398 -1.414 1.153 -0.216 2.271 -0.624 3.419 -0.888 0.461 -0.106 0.57 -0.283 0.572 -0.748 0.029 -6.12 -1.817 -7.05 -0.076 -7.239 1.496 -0.163 2.591 -1.198 2.513 -0.122 -0.165 2.271 0.086 4.535 0.125 6.803 0.017 1.022 0.757 0.221 1.805 0.198 3.555 -0.077 7.368 -1.794 7.366 -1.209 -0.006 1.73 -0.046 1.878 -0.135 2.611h0.001Zm0.471 -11.028c-0.046 2.155 0.055 4.312 -0.154 6.467 -0.106 1.095 -0.095 0.601 -7.602 2.427 -0.548 0.133 -0.701 -0.02 -0.761 -0.525a28.625 28.625 0 0 1 -0.189 -3.524c0.01 -2.636 -0.156 -2.959 0.521 -3.163 8.111 -2.452 8.204 -2.562 8.186 -1.68l-0.001 -0.002Zm4.314 11.652c-0.111 7.464 0.002 4.296 -3.914 6.077 0.129 -4.109 0.206 -8.123 0.565 -12.126 0.455 -5.062 -0.626 -6.799 0.955 -6.62 0.318 0.035 2.184 -0.328 2.95 0.244 0.648 0.483 0.036 1.336 0.018 2.02 -0.094 3.47 -0.523 6.926 -0.574 10.405Zm9.7 2.386s-2.847 0.801 -8.189 2.345c-0.58 0.168 -0.668 0.114 -0.665 -0.573 0.001 -0.318 0.185 -4.383 0.214 -4.929 0.034 -0.62 0.162 -0.603 0.557 -0.54a71.09 71.09 0 0 1 7.979 1.77c0.449 0.127 0.498 0.09 0.104 1.927Zm1.367 -1.934c0.067 -0.525 -0.026 -0.59 -0.45 -0.719 -9.256 -2.818 -9.6 -1.56 -9.441 -2.772 0.085 -0.65 -0.109 -1.58 0.247 -1.888 0.414 -0.356 1.198 0.247 1.832 0.39 8.616 1.94 8.516 2.313 8.706 1.353 1.415 -7.134 1.147 -7.126 1.928 -7.003 3.257 0.511 3.539 0.09 3.226 1.222 -1.895 6.845 -2.395 7.487 -1.249 7.366 1.825 -0.19 3.513 0.65 5.325 0.654 -3.433 1.158 -6.783 2.226 -10.361 3.04 0 0 0.193 -1.3 0.237 -1.643Zm15.596 -3.012c-3.572 1.19 -2.571 0.855 -3.662 0.715 -6.821 -0.876 -6.582 -0.735 -6.316 -1.66 1.705 -5.936 1.311 -6.12 2.037 -5.987 10.178 1.874 10.024 1.554 9.739 2.253 -1.347 4.728 -1.08 4.44 -1.799 4.68h0.001Zm5.398 -2.253c-0.08 0.986 -1.845 0.71 -3.041 1.454 -0.368 0.23 -0.586 0.127 -0.459 -0.356 1.023 -3.889 0.898 -4.039 1.523 -3.889 1.166 0.281 2.163 0.158 2.491 0.634 0.345 0.501 -0.452 1.39 -0.514 2.157Zm1.162 0.243c-0.022 -0.902 0.378 -1.496 0.499 -2.155 0.069 -0.374 0.042 -0.256 5.752 0.492 -2.006 0.795 -4.247 0.483 -6.251 1.663Z" stroke-width="1"></path><path id="vector_84" fill="#da5b5b" d="M143.363 103.007c-6.702 1.656 -7.226 2.28 -10.162 2.921 -0.714 0.156 -0.91 0.351 -0.951 1.267 -0.343 7.794 -0.365 8.433 1.474 7.737 7.889 -2.985 11.082 -2.262 11.38 -4.29 1.136 -7.725 0.764 -6.821 1.026 -7.745 0.35 -1.233 -2.144 -0.045 -2.767 0.109v0.001Zm0.701 7.306c-0.062 0.639 -0.122 0.352 -6.146 2.124 -6.32 1.859 -4.415 2.958 -4.606 -4.708 -0.023 -0.931 -0.17 -0.5 10.97 -3.947 1.311 -0.406 0.281 1.388 -0.218 6.531Z" stroke-width="1"></path><path id="vector_85" fill="#da5b5b" d="M129.415 107.261a2395.1 2395.1 0 0 0 -12.338 3.796c-0.601 0.289 -0.497 -0.011 -0.194 8.183 0.053 1.445 0.016 1.356 11.454 -2.647 2.256 -0.789 2.244 -0.217 2.206 -8.221 -0.004 -0.862 -0.355 -1.344 -1.128 -1.111Zm0.071 1.948c-0.639 8.506 1.659 4.626 -5.385 7.564 -1.814 0.757 -3.704 1.269 -5.528 1.979 -0.572 0.223 -0.657 0.114 -0.67 -0.472 -0.145 -6.28 -0.534 -6.196 0.078 -6.382 11.785 -3.592 11.602 -3.989 11.505 -2.689Z" stroke-width="1"></path><path id="vector_86" fill="#da5b5b" d="M130.423 120.224c0 -2.266 -0.073 -1.983 -2.026 -1.454 -3.482 0.944 -9.092 3.2 -10.243 3.19 -1.569 -0.014 -0.963 -0.085 -0.692 7.921 0.031 0.922 0.928 0.712 1.812 0.45 9.469 -2.811 8.473 -2.346 10.674 -3.092 0.808 -0.274 0.476 -0.091 0.474 -7.015h0.001Zm-1.641 6.262c-2.288 0.621 -4.537 1.375 -6.859 1.874 -2.919 0.627 -3.403 1.516 -3.451 0.614 -0.285 -5.456 -0.752 -5.827 0.301 -6.053 3.335 -0.715 6.443 -2.154 9.717 -3.072 1.015 -0.285 0.915 0.033 0.89 0.71 -0.143 3.958 0.639 5.59 -0.599 5.926l0.001 0.001Z" stroke-width="1"></path><path id="vector_87" fill="#da5b5b" d="M133.188 117.261c-0.708 0.203 -1 0.764 -1.006 1.287 -0.081 6.734 -0.024 7.549 0.695 7.638 2.233 -0.163 9.468 -2.562 9.495 -2.569 1.791 -0.469 0.799 -2.48 2.153 -9.161 0.198 -0.979 0.381 -0.555 -11.337 2.805Zm9.408 3.417c-0.035 1.489 -0.607 1.993 -2.026 2.373 -7.004 1.875 -7.279 2.42 -7.255 1.164 0.101 -5.218 -0.583 -5.729 0.581 -6.064 0.864 -0.249 7.952 -2.451 9.328 -2.705 -0.227 1.774 -0.587 3.501 -0.628 5.232Z" stroke-width="1"></path><path id="vector_88" fill="#da5b5b" d="M78.816 111.302c-0.001 -0.797 -0.165 -0.897 -4.552 -2.05 -9.86 -2.592 -10.978 -4.263 -10.786 -2.843 1.53 11.29 -1.444 5.99 14.924 12.259 0.606 0.232 0.719 0.173 0.726 -1.038 0.016 -2.775 -0.309 -3.729 -0.312 -6.328Zm-1.013 5.977c-2.636 -1.12 -12.321 -3.497 -12.426 -4.35 -0.68 -5.519 -0.966 -5.703 -0.176 -5.401 3.494 1.335 11.313 3.602 12.03 3.744 0.781 0.156 0.572 0.079 0.572 6.007Z" stroke-width="1"></path><path id="vector_89" fill="#da5b5b" d="M79.429 122.407c-0.065 -1.002 -0.311 -1.378 -1.123 -1.66 -14.6 -5.059 -13.522 -4.726 -13.388 -3.976 1.511 8.488 1.394 8.92 2.224 9.225 3.081 1.131 8.29 2.653 11.496 3.669 0.73 0.231 0.94 0.072 0.989 -0.846 0.035 -0.645 -0.152 -5.707 -0.198 -6.412Zm-1.603 5.82c-2.917 -0.789 -9.679 -3.03 -9.702 -3.039 -0.473 -0.193 -0.787 -0.363 -0.87 -0.888 -0.337 -2.117 -0.862 -4.205 -1.013 -6.483 12.475 4.19 12.145 3.807 12.148 4.989 0.013 5.274 0.57 5.727 -0.563 5.421Z" stroke-width="1"></path><path id="vector_90" fill="#da5b5b" d="M116.095 179.231c-5.43 -0.528 -5.434 8.196 -0.325 8.671 6.701 0.623 6.38 -9.107 0.325 -8.671Zm0.142 7.449c-1.585 0.084 -3.158 -1.694 -3.157 -3.373 0.001 -1.24 1.534 -2.794 2.818 -2.834 4.33 -0.135 5.077 5.955 0.339 6.207Z" stroke-width="1"></path><path id="vector_91" fill="#da5b5b" d="M155.338 166.6c-5.249 -0.436 -4.686 7.527 -0.196 7.823 2.438 0.161 4.404 -1.721 4.325 -3.406 -0.126 -2.727 -1.054 -4.573 -4.129 -4.417Zm-0.122 6.716c-1.296 -0.08 -2.695 -1.736 -2.638 -3.117 0.054 -1.291 1.509 -2.504 2.912 -2.429 3.773 -0.236 3.951 5.807 -0.274 5.546Z" stroke-width="1"></path></g><g id="question mark"><path id="vector_92" fill="#114c8d" d="M44.307 33.375c1.612 8.64 -3.497 9.433 -3.683 14.34 -0.043 1.124 -0.176 1.08 2.484 11.489 0.246 0.961 -1.728 1.328 -3.329 1.626 -1.01 0.188 -1.079 -0.012 -3.345 -7.098 -1.365 -4.27 -3.852 -6.612 -1.555 -10.07 1.218 -1.834 1.771 -3.905 2.311 -6.022 0.545 -2.137 -1.049 -5.481 -3.35 -6.707 -4.192 -2.235 -10.415 0.013 -12.051 5.103 -0.352 1.095 -1.429 0.003 -5.523 0.059 0.274 -7.237 4.762 -11.348 11.825 -12.944 8.233 -1.861 15.227 4.919 16.216 10.224Z" stroke-width="1"></path><path id="vector_93" fill="#114c8d" d="M45.357 66.174c0.563 2.713 -3.559 3.513 -4.032 0.884 -0.485 -2.696 3.524 -3.331 4.032 -0.884Z" stroke-width="1"></path><path id="vector_94" fill="#da5b5b" d="M44.889 41.536c4.012 -11.597 -6.171 -21.675 -16.688 -19.655 -1.494 0.18 -2.806 0.87 -4.184 1.37 -5.338 1.934 -8.644 6.46 -8.844 12.11 -0.086 2.435 0.951 1.802 5.254 2.386 1.643 0.224 2.064 0.19 2.947 -2.078 3.032 -7.798 18.382 -4.602 10.389 7.23 -1.354 2.005 -1.5 4.284 -0.422 6.591 4.702 10.055 3.164 13.161 6.673 12.634 2.413 -0.362 3.765 -0.874 4.253 -1.612 0.356 -0.538 0.203 -1.12 0.074 -1.637 -1.11 -4.433 -1.444 -6.115 -2.102 -8.488 -1.263 -4.549 1.911 -6.717 2.649 -8.852l0.001 0.001Zm-7.602 -3.87c0.567 -2.226 -1.117 -5.605 -3.4 -6.82 -4.513 -2.407 -10.434 0.525 -11.809 4.171 -0.928 2.461 -0.133 0.92 -5.708 0.977 0.22 -5.055 2.364 -8.58 6.552 -10.775 6.294 -3.297 11.578 -3.08 16.154 0.666 2.178 1.783 4.491 4.07 5.133 7.51 0.702 3.762 0.182 6.715 -1.639 9.294 -2.713 3.846 -2.269 5.667 -1.274 9.652 1.904 7.627 2.012 7.262 1.38 7.561 -0.949 0.448 -1.852 0.633 -2.915 0.832 -0.573 0.105 -0.875 -0.103 -1.083 -0.746 -3.672 -11.417 -6.011 -12.81 -3.715 -16.269 1.27 -1.91 1.83 -4.11 2.324 -6.052v-0.002Z" stroke-width="1"></path><path id="vector_95" fill="#da5b5b" d="M46.629 65.892c-0.797 -3.548 -5.588 -3.235 -6.485 -0.378 -0.636 2.026 0.715 4.527 3.053 4.527 2.246 0 3.943 -1.878 3.432 -4.149Zm-2.953 2.669c-1.699 0.312 -2.634 -1.347 -2.142 -2.644 0.592 -1.559 3.36 -1.757 3.715 0.365 0.161 0.96 -0.327 2.051 -1.573 2.279Z" stroke-width="1"></path></g><g id="lines"><path id="vector_96" fill="#da5b5b" d="M111.26 25.613c-0.001 -1.093 -0.136 -1.615 0.405 -1.654 0.59 -0.043 0.399 0.728 0.532 1.883 0.396 3.439 0.641 3.79 0.058 3.916 -0.841 0.182 -0.994 -3.426 -0.995 -4.145Z" stroke-width="1"></path><path id="vector_97" fill="#da5b5b" d="M79.106 35.174c0.011 -0.434 0.013 -0.699 0.376 -0.732 0.363 -0.033 0.59 0.122 0.666 0.501 0.169 0.842 1.024 4.5 1.781 4.922 0.895 0.5 -1.144 3.593 -2.823 -4.69Z" stroke-width="1"></path><path id="vector_98" fill="#da5b5b" d="M84.88 40.604c0.929 0.411 -0.731 1.944 -0.808 5.503 -0.006 0.292 -0.167 0.437 -0.374 0.505 -1.404 0.467 -0.086 -6.57 1.182 -6.008Z" stroke-width="1"></path><path id="vector_99" fill="#da5b5b" d="M84.005 56.601c0.191 0.675 -0.831 0.893 -0.977 0.211 -0.302 -1.407 -0.456 -2.829 -0.39 -4.27 0.016 -0.349 0.209 -0.49 0.548 -0.523 0.59 -0.058 0.47 0.125 0.819 4.581v0.001Z" stroke-width="1"></path><path id="vector_100" fill="#da5b5b" d="M73.48 58.596c-0.366 0.881 -2.62 -0.707 -6.213 0.033 -0.81 0.167 -1.058 -0.644 -0.265 -0.968 1.169 -0.479 7.043 -0.426 6.478 0.935Z" stroke-width="1"></path><path id="vector_101" fill="#da5b5b" d="M93.126 31.822c0.062 0.35 -0.185 0.467 -0.427 0.554 -1.682 0.605 -2.895 1.8 -3.965 3.166 -0.646 0.825 -1.404 0.04 -0.953 -0.608 2.107 -3.026 5.432 -4.414 5.345 -3.112Z" stroke-width="1"></path><path id="vector_102" fill="#da5b5b" d="M86.819 67.932c-0.08 0.361 -0.049 0.74 -0.554 0.76 -0.412 0.015 -0.526 -0.27 -0.59 -0.602 -1.077 -5.55 -1.222 -5.472 -0.597 -5.605 0.697 -0.149 0.579 0.15 1.741 5.447Z" stroke-width="1"></path><path id="vector_103" fill="#da5b5b" d="M58.409 65.263c0.183 -1.794 1.738 -3.511 3.306 -4.268 0.924 -0.446 1.151 0.512 0.463 0.902 -1.059 0.599 -2.586 2.179 -2.867 3.595 -0.125 0.628 -0.915 0.735 -0.902 -0.229Z" stroke-width="1"></path><path id="vector_104" fill="#da5b5b" d="M113.943 14.941c0.183 -0.332 0.382 -0.771 0.819 -0.525 0.46 0.259 0.102 0.69 -0.053 0.966 -1.802 3.207 -1.803 5.12 -2.331 5.064 -1.376 -0.144 0.894 -4.289 1.565 -5.505Z" stroke-width="1"></path><path id="vector_105" fill="#da5b5b" d="M160.865 15.415c-1.399 -2.96 -1.79 -3.65 -2.362 -4.167 -0.764 -0.69 0.386 -3.058 3.001 3.466 0.461 1.15 -0.287 1.445 -0.639 0.701Z" stroke-width="1"></path><path id="vector_106" fill="#da5b5b" d="M109.562 55.85c-0.053 -0.91 1.603 -0.69 3.319 -2.81 0.272 -0.336 0.677 -0.65 1.013 -0.378 1.06 0.857 -4.098 4.912 -4.332 3.187Z" stroke-width="1"></path><path id="vector_107" fill="#da5b5b" d="M78.596 26.15c0.053 -0.334 0.082 -0.717 0.583 -0.683 1.004 0.068 0.019 2.204 0.16 4.014 0.042 0.537 0.441 1.312 -0.272 1.474 -1.367 0.311 -0.693 -3.419 -0.472 -4.804l0.001 -0.001Z" stroke-width="1"></path><path id="vector_108" fill="#da5b5b" d="M66.543 72.712c-0.452 0.007 -0.858 -0.022 -0.888 -0.588 -0.034 -0.626 0.501 -0.443 0.813 -0.499 2.769 -0.496 3.716 -1.819 4.13 -1.236 0.76 1.072 -2.765 2.07 -4.054 2.322l-0.001 0.001Z" stroke-width="1"></path><path id="vector_109" fill="#da5b5b" d="M59.048 67.926c0.759 -0.122 0.676 2.735 2.447 3.515 0.314 0.138 0.227 0.436 0.158 0.68 -0.151 0.527 -1.155 0.034 -1.407 -0.192 -1.055 -0.948 -2.155 -3.849 -1.198 -4.003Z" stroke-width="1"></path><path id="vector_110" fill="#da5b5b" d="M91.59 54.248c0.567 -0.493 2.903 1.718 3.513 1.616 0.467 -0.078 0.806 -0.076 0.775 0.541 -0.094 1.888 -5.339 -1.243 -4.288 -2.157Z" stroke-width="1"></path><path id="vector_111" fill="#da5b5b" d="M82.024 60.495c0.751 0.627 0.345 1.619 -0.679 0.83 -2.703 -2.081 -3.15 -2.041 -2.99 -2.736 0.248 -1.077 2.928 1.286 3.669 1.906Z" stroke-width="1"></path><path id="vector_112" fill="#da5b5b" d="M142.101 5.003c0.862 0.087 1.509 0.007 1.478 0.61 -0.043 0.837 -0.501 -0.192 -4.056 1.031 -0.815 0.28 -1.075 -0.719 -0.336 -0.966 0.948 -0.317 1.879 -0.719 2.914 -0.675Z" stroke-width="1"></path><path id="vector_113" fill="#da5b5b" d="M87.83 72.17c0.993 0.052 0.47 2.04 1.981 3.087 0.256 0.178 0.191 0.988 -0.501 0.937 -0.991 -0.072 -1.515 -1.66 -2.05 -3.163 -0.144 -0.405 -0.102 -0.824 0.57 -0.862Z" stroke-width="1"></path><path id="vector_114" fill="#da5b5b" d="M154.234 7.207c0.049 0.376 -0.267 0.508 -0.537 0.396 -1.031 -0.428 -2.146 -0.379 -3.199 -0.654 -1.291 -0.337 -1.124 -1.721 -0.096 -1.204 1.305 0.656 3.807 0.274 3.831 1.463l0.001 -0.001Z" stroke-width="1"></path><path id="vector_115" fill="#da5b5b" d="M132.941 6.87c3.384 0.182 4.728 2.871 4.112 3.27 -0.803 0.518 -0.304 -1.025 -3.161 -2.285 -0.481 -0.212 -0.801 -0.476 -0.951 -0.986Z" stroke-width="1"></path><path id="vector_116" fill="#da5b5b" d="M79.417 21.942c0.225 -0.837 1.118 -3.994 2.106 -3.413 0.81 0.476 -0.817 1.92 -1.213 4.04 -0.053 0.283 -0.278 0.443 -0.483 0.387 -0.452 -0.123 -0.392 -0.547 -0.41 -1.014Z" stroke-width="1"></path><path id="vector_117" fill="#da5b5b" d="M117.09 11.361c-0.594 -0.915 1.376 -2.89 3.188 -3.629 0.601 -0.245 0.871 0.513 0.183 0.866 -1.317 0.676 -2.206 1.861 -3.37 2.763h-0.001Z" stroke-width="1"></path><path id="vector_118" fill="#da5b5b" d="M115.427 38.81c0.093 0.884 -0.717 0.853 -0.884 0.356 -0.399 -1.186 -0.418 -2.057 -1.356 -2.567 -0.599 -0.325 -0.67 -0.84 -0.472 -1.115 0.279 -0.387 2.236 0.574 2.478 2.277 0.056 0.394 0.171 0.78 0.234 1.05Z" stroke-width="1"></path><path id="vector_119" fill="#da5b5b" d="M67.661 54.911c-0.312 1.563 -2.754 -1.429 -3.464 -2.856 -0.278 -0.559 0.494 -0.83 0.715 -0.492 1.12 1.715 2.431 2.518 2.749 3.348Z" stroke-width="1"></path><path id="vector_120" fill="#da5b5b" d="M102.645 58.484c-0.22 -0.016 -2.613 0.18 -2.059 -1.135 0.16 -0.379 0.004 -0.16 3.845 0.1 0.294 0.02 0.721 -0.053 0.744 0.321 0.041 0.668 -0.926 0.583 -2.529 0.715l-0.001 0Z" stroke-width="1"></path><path id="vector_121" fill="#da5b5b" d="M128.751 6.833c-1.592 -0.46 -4.445 0.176 -4.332 -0.795 0.06 -0.519 0.499 -0.27 0.755 -0.274 0.024 0 4.404 -0.347 4.345 0.677 -0.027 0.467 -0.461 0.298 -0.768 0.392Z" stroke-width="1"></path><path id="vector_122" fill="#da5b5b" d="M96.592 31.216c-0.77 -0.013 -1.028 -0.768 -0.191 -1.05 1.04 -0.352 2.117 -0.516 3.197 -0.682 0.276 -0.042 0.521 -0.038 0.619 0.294 0.218 0.74 -0.23 0.652 -3.625 1.438Z" stroke-width="1"></path><path id="vector_123" fill="#da5b5b" d="M139.216 20.137c-0.706 -0.29 0.659 -0.804 -0.125 -3.428 -0.398 -1.334 0.443 -1.76 0.779 -0.65 0.719 2.375 0.401 4.512 -0.654 4.078Z" stroke-width="1"></path><path id="vector_124" fill="#da5b5b" d="M72.307 67.823c0.262 -1.127 0.23 -2.273 0.303 -3.413 0.043 -0.668 0.905 -0.528 0.928 0.02 0.216 5.17 -1.41 4.161 -1.231 3.393Z" stroke-width="1"></path><path id="vector_125" fill="#da5b5b" d="M135.943 22.512c-1.034 0.77 -2.556 0.647 -3.797 0.711 -0.356 0.018 -0.483 -0.116 -0.503 -0.405 -0.026 -0.372 0.338 -0.637 3.571 -0.954 0.101 -0.01 2.013 -0.307 0.73 0.65l-0.001 -0.002Z" stroke-width="1"></path><path id="vector_126" fill="#da5b5b" d="M86.454 49.406c0.031 -0.7 0.726 -0.726 0.951 -0.24 0.812 1.75 1.201 2.372 1.425 2.447 0.23 0.077 0.552 -0.009 0.516 0.394 -0.091 1.033 -2.099 0.797 -2.892 -2.6Z" stroke-width="1"></path><path id="vector_127" fill="#da5b5b" d="M105.149 29.382c1.888 0.22 2.578 0.156 2.509 0.864 -0.067 0.681 -0.443 0.428 -3.146 0.229 -0.398 -0.029 -0.755 -0.082 -0.759 -0.599 -0.005 -0.608 0.405 -0.494 1.396 -0.494Z" stroke-width="1"></path><path id="vector_128" fill="#da5b5b" d="M116.135 46.185c-0.069 1.091 0.054 2.182 -0.775 2.073 -0.414 -0.055 -0.398 -0.403 -0.356 -0.732 0.236 -1.837 -0.307 -3.787 0.39 -3.831 0.675 -0.043 0.583 0.658 0.741 2.49Z" stroke-width="1"></path><path id="vector_129" fill="#da5b5b" d="M60.851 48.974c0.129 0.332 -0.614 0.833 -1.055 0.365 -0.548 -0.58 -2.389 -2.849 -1.667 -3.192 0.96 -0.456 1.113 1.584 2.656 2.507 0.063 0.037 0.047 0.21 0.067 0.321l-0.001 0Z" stroke-width="1"></path><path id="vector_130" fill="#da5b5b" d="M128.617 19.558c-1.106 0.356 -1.154 -0.819 -1.129 -3.85 0.002 -0.288 0.011 -0.635 0.425 -0.6 0.741 0.063 0.087 2.738 0.703 4.45h0.001Z" stroke-width="1"></path><path id="vector_131" fill="#da5b5b" d="M161.821 20.501c0.006 -0.84 0.697 -0.65 0.798 -0.21 0.272 1.182 0.094 3.853 0.017 4.463 -0.051 0.405 -0.665 0.659 -0.764 -0.107 -0.013 -0.104 -0.052 -4.055 -0.052 -4.145l0.001 -0.001Z" stroke-width="1"></path><path id="vector_132" fill="#da5b5b" d="M56.101 42.425c0.236 0.211 -0.292 0.307 -0.189 0.539 -0.759 -0.813 -1.331 -2.911 -0.514 -3.039 0.441 -0.069 0.394 0.154 0.703 2.5Z" stroke-width="1"></path><path id="vector_133" fill="#da5b5b" d="M154.723 48.538c-2.124 1.745 -2.604 2.26 -3.034 1.792 -0.467 -0.508 0.264 -0.87 2.972 -2.912 0.532 -0.4 1.295 0.107 0.062 1.12Z" stroke-width="1"></path><path id="vector_134" fill="#da5b5b" d="M160.364 40.005c-0.14 0.703 -1.674 4.261 -2.513 3.718 -0.612 -0.396 0.684 -1.539 1.6 -4.143 0.141 -0.4 0.915 -0.516 0.913 0.425Z" stroke-width="1"></path><path id="vector_135" fill="#da5b5b" d="M163.135 30.742c0.044 0.475 -0.59 4.15 -0.915 4.99 -0.355 0.918 -1.045 0.664 -0.867 -0.392 0.086 -0.51 0.716 -3.4 0.786 -4.745 0.022 -0.423 0.731 -0.756 0.996 0.147Z" stroke-width="1"></path><path id="vector_136" fill="#da5b5b" d="M91.369 80.35c0.02 -0.88 0.786 -0.83 1.118 -0.26 0.51 0.874 1.643 2.79 1.95 2.831 1.267 0.177 0.26 2.11 -0.999 0.746 -0.276 -0.299 -1.95 -2.728 -2.069 -3.318Z" stroke-width="1"></path></g></g></svg>