<svg xmlns="http://www.w3.org/2000/svg" xmlns:xlink="http://www.w3.org/1999/xlink" width="500" zoomAndPan="magnify" viewBox="0 0 375 119.999999" height="160" preserveAspectRatio="xMidYMid meet" version="1.0"><defs><g/><clipPath id="741c41dd80"><path d="M 2.902344 4.957031 L 112.402344 4.957031 L 112.402344 107.867188 L 2.902344 107.867188 Z M 2.902344 4.957031 " clip-rule="nonzero"/></clipPath><clipPath id="eb666fa118"><path d="M 2.902344 4.957031 L 112.402344 4.957031 L 112.402344 107.867188 L 2.902344 107.867188 Z M 2.902344 4.957031 " clip-rule="nonzero"/></clipPath><clipPath id="7e6930a23c"><path d="M 112.402344 56.414062 C 112.402344 58.097656 112.3125 59.78125 112.136719 61.457031 C 111.960938 63.132812 111.699219 64.796875 111.351562 66.453125 C 111 68.105469 110.566406 69.738281 110.042969 71.347656 C 109.523438 72.960938 108.921875 74.546875 108.234375 76.105469 C 107.546875 77.660156 106.78125 79.183594 105.9375 80.667969 C 105.09375 82.15625 104.171875 83.597656 103.175781 85 C 102.179688 86.398438 101.113281 87.753906 99.976562 89.054688 C 98.835938 90.359375 97.632812 91.605469 96.367188 92.796875 C 95.097656 93.988281 93.773438 95.117188 92.386719 96.1875 C 91 97.257812 89.5625 98.257812 88.070312 99.195312 C 86.578125 100.132812 85.042969 100.996094 83.460938 101.789062 C 81.878906 102.585938 80.261719 103.304688 78.605469 103.949219 C 76.949219 104.59375 75.261719 105.160156 73.546875 105.652344 C 71.832031 106.140625 70.09375 106.550781 68.335938 106.878906 C 66.574219 107.207031 64.804688 107.453125 63.019531 107.617188 C 61.234375 107.785156 59.445312 107.867188 57.652344 107.867188 C 55.859375 107.867188 54.070312 107.785156 52.285156 107.617188 C 50.503906 107.453125 48.730469 107.207031 46.972656 106.878906 C 45.214844 106.550781 43.476562 106.140625 41.761719 105.652344 C 40.042969 105.160156 38.359375 104.59375 36.703125 103.949219 C 35.046875 103.304688 33.425781 102.585938 31.84375 101.789062 C 30.261719 100.996094 28.726562 100.132812 27.234375 99.195312 C 25.746094 98.257812 24.308594 97.257812 22.921875 96.1875 C 21.535156 95.117188 20.207031 93.988281 18.941406 92.796875 C 17.671875 91.605469 16.46875 90.359375 15.332031 89.054688 C 14.195312 87.753906 13.128906 86.398438 12.132812 85 C 11.136719 83.597656 10.214844 82.15625 9.367188 80.667969 C 8.523438 79.183594 7.757812 77.660156 7.070312 76.105469 C 6.386719 74.546875 5.78125 72.960938 5.261719 71.347656 C 4.742188 69.738281 4.304688 68.105469 3.957031 66.453125 C 3.605469 64.796875 3.34375 63.132812 3.167969 61.457031 C 2.992188 59.78125 2.902344 58.097656 2.902344 56.414062 C 2.902344 54.726562 2.992188 53.046875 3.167969 51.371094 C 3.34375 49.691406 3.605469 48.027344 3.957031 46.375 C 4.304688 44.722656 4.742188 43.089844 5.261719 41.476562 C 5.78125 39.863281 6.386719 38.28125 7.070312 36.722656 C 7.757812 35.164062 8.523438 33.644531 9.367188 32.160156 C 10.214844 30.671875 11.136719 29.226562 12.132812 27.828125 C 13.128906 26.425781 14.195312 25.074219 15.332031 23.773438 C 16.46875 22.46875 17.671875 21.222656 18.941406 20.03125 C 20.207031 18.839844 21.535156 17.707031 22.921875 16.640625 C 24.308594 15.570312 25.746094 14.566406 27.234375 13.632812 C 28.726562 12.695312 30.261719 11.828125 31.84375 11.035156 C 33.425781 10.242188 35.046875 9.519531 36.703125 8.875 C 38.359375 8.230469 40.042969 7.664062 41.761719 7.175781 C 43.476562 6.6875 45.214844 6.277344 46.972656 5.949219 C 48.730469 5.621094 50.503906 5.371094 52.285156 5.207031 C 54.070312 5.042969 55.859375 4.960938 57.652344 4.960938 C 59.445312 4.960938 61.234375 5.042969 63.019531 5.207031 C 64.804688 5.371094 66.574219 5.621094 68.335938 5.949219 C 70.09375 6.277344 71.832031 6.6875 73.546875 7.175781 C 75.261719 7.664062 76.949219 8.230469 78.605469 8.875 C 80.261719 9.519531 81.878906 10.242188 83.460938 11.035156 C 85.042969 11.828125 86.578125 12.695312 88.070312 13.632812 C 89.5625 14.566406 91 15.570312 92.386719 16.640625 C 93.773438 17.707031 95.097656 18.839844 96.367188 20.03125 C 97.632812 21.222656 98.835938 22.46875 99.976562 23.773438 C 101.113281 25.074219 102.179688 26.425781 103.175781 27.828125 C 104.171875 29.226562 105.09375 30.671875 105.9375 32.160156 C 106.78125 33.644531 107.546875 35.164062 108.234375 36.722656 C 108.921875 38.28125 109.523438 39.863281 110.042969 41.476562 C 110.566406 43.089844 111 44.722656 111.351562 46.375 C 111.699219 48.027344 111.960938 49.691406 112.136719 51.371094 C 112.3125 53.046875 112.402344 54.726562 112.402344 56.414062 Z M 112.402344 56.414062 " clip-rule="nonzero"/></clipPath><linearGradient x1="-0.000000818052" gradientTransform="matrix(0.084359, 0, 0, 0.0839369, 2.904242, 4.959879)" y1="613" x2="1298.000072" gradientUnits="userSpaceOnUse" y2="613" id="ee8d9d01ab"><stop stop-opacity="1" stop-color="rgb(11.399841%, 11.399841%, 12.199402%)" offset="0"/><stop stop-opacity="1" stop-color="rgb(11.357117%, 11.485291%, 12.385559%)" offset="0.0078125"/><stop stop-opacity="1" stop-color="rgb(11.274719%, 11.656189%, 12.759399%)" offset="0.015625"/><stop stop-opacity="1" stop-color="rgb(11.192322%, 11.827087%, 13.131714%)" offset="0.0234375"/><stop stop-opacity="1" stop-color="rgb(11.109924%, 11.997986%, 13.505554%)" offset="0.03125"/><stop stop-opacity="1" stop-color="rgb(11.026001%, 12.168884%, 13.879395%)" offset="0.0390625"/><stop stop-opacity="1" stop-color="rgb(10.943604%, 12.339783%, 14.253235%)" offset="0.046875"/><stop stop-opacity="1" stop-color="rgb(10.861206%, 12.510681%, 14.625549%)" offset="0.0546875"/><stop stop-opacity="1" stop-color="rgb(10.777283%, 12.683105%, 14.99939%)" offset="0.0625"/><stop stop-opacity="1" stop-color="rgb(10.694885%, 12.854004%, 15.37323%)" offset="0.0703125"/><stop stop-opacity="1" stop-color="rgb(10.612488%, 13.024902%, 15.74707%)" offset="0.078125"/><stop stop-opacity="1" stop-color="rgb(10.53009%, 13.195801%, 16.119385%)" offset="0.0859375"/><stop stop-opacity="1" stop-color="rgb(10.446167%, 13.366699%, 16.493225%)" offset="0.09375"/><stop stop-opacity="1" stop-color="rgb(10.36377%, 13.537598%, 16.867065%)" offset="0.101562"/><stop stop-opacity="1" stop-color="rgb(10.281372%, 13.708496%, 17.23938%)" offset="0.109375"/><stop stop-opacity="1" stop-color="rgb(10.198975%, 13.879395%, 17.61322%)" offset="0.117187"/><stop stop-opacity="1" stop-color="rgb(10.115051%, 14.051819%, 17.987061%)" offset="0.125"/><stop stop-opacity="1" stop-color="rgb(10.032654%, 14.222717%, 18.360901%)" offset="0.132812"/><stop stop-opacity="1" stop-color="rgb(9.950256%, 14.393616%, 18.733215%)" offset="0.140625"/><stop stop-opacity="1" stop-color="rgb(9.866333%, 14.564514%, 19.107056%)" offset="0.148437"/><stop stop-opacity="1" stop-color="rgb(9.783936%, 14.735413%, 19.480896%)" offset="0.15625"/><stop stop-opacity="1" stop-color="rgb(9.701538%, 14.906311%, 19.854736%)" offset="0.164062"/><stop stop-opacity="1" stop-color="rgb(9.619141%, 15.077209%, 20.227051%)" offset="0.171875"/><stop stop-opacity="1" stop-color="rgb(9.535217%, 15.248108%, 20.600891%)" offset="0.179687"/><stop stop-opacity="1" stop-color="rgb(9.45282%, 15.420532%, 20.974731%)" offset="0.1875"/><stop stop-opacity="1" stop-color="rgb(9.370422%, 15.591431%, 21.348572%)" offset="0.195312"/><stop stop-opacity="1" stop-color="rgb(9.288025%, 15.762329%, 21.720886%)" offset="0.203125"/><stop stop-opacity="1" stop-color="rgb(9.204102%, 15.933228%, 22.094727%)" offset="0.210937"/><stop stop-opacity="1" stop-color="rgb(9.121704%, 16.104126%, 22.468567%)" offset="0.21875"/><stop stop-opacity="1" stop-color="rgb(9.039307%, 16.275024%, 22.842407%)" offset="0.226562"/><stop stop-opacity="1" stop-color="rgb(8.955383%, 16.445923%, 23.214722%)" offset="0.234375"/><stop stop-opacity="1" stop-color="rgb(8.872986%, 16.616821%, 23.588562%)" offset="0.242187"/><stop stop-opacity="1" stop-color="rgb(8.790588%, 16.789246%, 23.962402%)" offset="0.25"/><stop stop-opacity="1" stop-color="rgb(8.708191%, 16.960144%, 24.334717%)" offset="0.257812"/><stop stop-opacity="1" stop-color="rgb(8.624268%, 17.131042%, 24.708557%)" offset="0.265625"/><stop stop-opacity="1" stop-color="rgb(8.54187%, 17.301941%, 25.082397%)" offset="0.273438"/><stop stop-opacity="1" stop-color="rgb(8.459473%, 17.472839%, 25.456238%)" offset="0.28125"/><stop stop-opacity="1" stop-color="rgb(8.377075%, 17.643738%, 25.828552%)" offset="0.289062"/><stop stop-opacity="1" stop-color="rgb(8.293152%, 17.814636%, 26.202393%)" offset="0.296875"/><stop stop-opacity="1" stop-color="rgb(8.210754%, 17.985535%, 26.576233%)" offset="0.304687"/><stop stop-opacity="1" stop-color="rgb(8.128357%, 18.157959%, 26.950073%)" offset="0.3125"/><stop stop-opacity="1" stop-color="rgb(8.044434%, 18.328857%, 27.322388%)" offset="0.320312"/><stop stop-opacity="1" stop-color="rgb(7.962036%, 18.499756%, 27.696228%)" offset="0.328125"/><stop stop-opacity="1" stop-color="rgb(7.879639%, 18.670654%, 28.070068%)" offset="0.335937"/><stop stop-opacity="1" stop-color="rgb(7.797241%, 18.841553%, 28.443909%)" offset="0.34375"/><stop stop-opacity="1" stop-color="rgb(7.713318%, 19.012451%, 28.816223%)" offset="0.351562"/><stop stop-opacity="1" stop-color="rgb(7.63092%, 19.18335%, 29.190063%)" offset="0.359375"/><stop stop-opacity="1" stop-color="rgb(7.548523%, 19.354248%, 29.563904%)" offset="0.367187"/><stop stop-opacity="1" stop-color="rgb(7.466125%, 19.526672%, 29.936218%)" offset="0.375"/><stop stop-opacity="1" stop-color="rgb(7.382202%, 19.697571%, 30.310059%)" offset="0.382812"/><stop stop-opacity="1" stop-color="rgb(7.299805%, 19.868469%, 30.683899%)" offset="0.390625"/><stop stop-opacity="1" stop-color="rgb(7.217407%, 20.039368%, 31.057739%)" offset="0.398437"/><stop stop-opacity="1" stop-color="rgb(7.133484%, 20.210266%, 31.430054%)" offset="0.40625"/><stop stop-opacity="1" stop-color="rgb(7.051086%, 20.381165%, 31.803894%)" offset="0.414062"/><stop stop-opacity="1" stop-color="rgb(6.968689%, 20.552063%, 32.177734%)" offset="0.421875"/><stop stop-opacity="1" stop-color="rgb(6.886292%, 20.724487%, 32.551575%)" offset="0.429687"/><stop stop-opacity="1" stop-color="rgb(6.802368%, 20.895386%, 32.923889%)" offset="0.4375"/><stop stop-opacity="1" stop-color="rgb(6.719971%, 21.066284%, 33.297729%)" offset="0.445312"/><stop stop-opacity="1" stop-color="rgb(6.637573%, 21.237183%, 33.67157%)" offset="0.453125"/><stop stop-opacity="1" stop-color="rgb(6.555176%, 21.408081%, 34.04541%)" offset="0.460937"/><stop stop-opacity="1" stop-color="rgb(6.471252%, 21.578979%, 34.417725%)" offset="0.46875"/><stop stop-opacity="1" stop-color="rgb(6.388855%, 21.749878%, 34.791565%)" offset="0.476562"/><stop stop-opacity="1" stop-color="rgb(6.306458%, 21.920776%, 35.165405%)" offset="0.484375"/><stop stop-opacity="1" stop-color="rgb(6.222534%, 22.093201%, 35.539246%)" offset="0.492187"/><stop stop-opacity="1" stop-color="rgb(6.140137%, 22.264099%, 35.91156%)" offset="0.5"/><stop stop-opacity="1" stop-color="rgb(6.057739%, 22.434998%, 36.2854%)" offset="0.507812"/><stop stop-opacity="1" stop-color="rgb(5.975342%, 22.605896%, 36.659241%)" offset="0.515625"/><stop stop-opacity="1" stop-color="rgb(5.891418%, 22.776794%, 37.031555%)" offset="0.523437"/><stop stop-opacity="1" stop-color="rgb(5.809021%, 22.947693%, 37.405396%)" offset="0.53125"/><stop stop-opacity="1" stop-color="rgb(5.726624%, 23.118591%, 37.779236%)" offset="0.539062"/><stop stop-opacity="1" stop-color="rgb(5.644226%, 23.28949%, 38.153076%)" offset="0.546875"/><stop stop-opacity="1" stop-color="rgb(5.560303%, 23.461914%, 38.525391%)" offset="0.554687"/><stop stop-opacity="1" stop-color="rgb(5.477905%, 23.632812%, 38.899231%)" offset="0.5625"/><stop stop-opacity="1" stop-color="rgb(5.395508%, 23.803711%, 39.273071%)" offset="0.570312"/><stop stop-opacity="1" stop-color="rgb(5.311584%, 23.974609%, 39.646912%)" offset="0.578125"/><stop stop-opacity="1" stop-color="rgb(5.229187%, 24.145508%, 40.019226%)" offset="0.585937"/><stop stop-opacity="1" stop-color="rgb(5.14679%, 24.316406%, 40.393066%)" offset="0.59375"/><stop stop-opacity="1" stop-color="rgb(5.064392%, 24.487305%, 40.766907%)" offset="0.601562"/><stop stop-opacity="1" stop-color="rgb(4.980469%, 24.658203%, 41.140747%)" offset="0.609375"/><stop stop-opacity="1" stop-color="rgb(4.898071%, 24.830627%, 41.513062%)" offset="0.617188"/><stop stop-opacity="1" stop-color="rgb(4.815674%, 25.001526%, 41.886902%)" offset="0.625"/><stop stop-opacity="1" stop-color="rgb(4.733276%, 25.172424%, 42.260742%)" offset="0.632812"/><stop stop-opacity="1" stop-color="rgb(4.649353%, 25.343323%, 42.634583%)" offset="0.640625"/><stop stop-opacity="1" stop-color="rgb(4.566956%, 25.514221%, 43.006897%)" offset="0.648438"/><stop stop-opacity="1" stop-color="rgb(4.484558%, 25.68512%, 43.380737%)" offset="0.65625"/><stop stop-opacity="1" stop-color="rgb(4.400635%, 25.856018%, 43.754578%)" offset="0.664062"/><stop stop-opacity="1" stop-color="rgb(4.318237%, 26.026917%, 44.126892%)" offset="0.671875"/><stop stop-opacity="1" stop-color="rgb(4.23584%, 26.199341%, 44.500732%)" offset="0.679688"/><stop stop-opacity="1" stop-color="rgb(4.153442%, 26.370239%, 44.874573%)" offset="0.6875"/><stop stop-opacity="1" stop-color="rgb(4.069519%, 26.541138%, 45.248413%)" offset="0.695312"/><stop stop-opacity="1" stop-color="rgb(3.987122%, 26.712036%, 45.620728%)" offset="0.703125"/><stop stop-opacity="1" stop-color="rgb(3.904724%, 26.882935%, 45.994568%)" offset="0.710937"/><stop stop-opacity="1" stop-color="rgb(3.822327%, 27.053833%, 46.368408%)" offset="0.71875"/><stop stop-opacity="1" stop-color="rgb(3.738403%, 27.224731%, 46.742249%)" offset="0.726562"/><stop stop-opacity="1" stop-color="rgb(3.656006%, 27.397156%, 47.114563%)" offset="0.734375"/><stop stop-opacity="1" stop-color="rgb(3.573608%, 27.568054%, 47.488403%)" offset="0.742187"/><stop stop-opacity="1" stop-color="rgb(3.489685%, 27.738953%, 47.862244%)" offset="0.75"/><stop stop-opacity="1" stop-color="rgb(3.407288%, 27.909851%, 48.236084%)" offset="0.757812"/><stop stop-opacity="1" stop-color="rgb(3.32489%, 28.08075%, 48.608398%)" offset="0.765625"/><stop stop-opacity="1" stop-color="rgb(3.242493%, 28.251648%, 48.982239%)" offset="0.773438"/><stop stop-opacity="1" stop-color="rgb(3.158569%, 28.422546%, 49.356079%)" offset="0.78125"/><stop stop-opacity="1" stop-color="rgb(3.076172%, 28.593445%, 49.728394%)" offset="0.789062"/><stop stop-opacity="1" stop-color="rgb(2.993774%, 28.765869%, 50.102234%)" offset="0.796875"/><stop stop-opacity="1" stop-color="rgb(2.911377%, 28.936768%, 50.476074%)" offset="0.804687"/><stop stop-opacity="1" stop-color="rgb(2.827454%, 29.107666%, 50.849915%)" offset="0.8125"/><stop stop-opacity="1" stop-color="rgb(2.745056%, 29.278564%, 51.222229%)" offset="0.820312"/><stop stop-opacity="1" stop-color="rgb(2.662659%, 29.449463%, 51.596069%)" offset="0.828125"/><stop stop-opacity="1" stop-color="rgb(2.578735%, 29.620361%, 51.96991%)" offset="0.835937"/><stop stop-opacity="1" stop-color="rgb(2.496338%, 29.79126%, 52.34375%)" offset="0.84375"/><stop stop-opacity="1" stop-color="rgb(2.41394%, 29.962158%, 52.716064%)" offset="0.851562"/><stop stop-opacity="1" stop-color="rgb(2.331543%, 30.134583%, 53.089905%)" offset="0.859375"/><stop stop-opacity="1" stop-color="rgb(2.24762%, 30.305481%, 53.463745%)" offset="0.867187"/><stop stop-opacity="1" stop-color="rgb(2.165222%, 30.476379%, 53.837585%)" offset="0.875"/><stop stop-opacity="1" stop-color="rgb(2.082825%, 30.647278%, 54.2099%)" offset="0.882812"/><stop stop-opacity="1" stop-color="rgb(2.000427%, 30.818176%, 54.58374%)" offset="0.890625"/><stop stop-opacity="1" stop-color="rgb(1.916504%, 30.989075%, 54.957581%)" offset="0.898438"/><stop stop-opacity="1" stop-color="rgb(1.834106%, 31.159973%, 55.331421%)" offset="0.90625"/><stop stop-opacity="1" stop-color="rgb(1.751709%, 31.330872%, 55.703735%)" offset="0.914062"/><stop stop-opacity="1" stop-color="rgb(1.669312%, 31.503296%, 56.077576%)" offset="0.921875"/><stop stop-opacity="1" stop-color="rgb(1.585388%, 31.674194%, 56.451416%)" offset="0.929687"/><stop stop-opacity="1" stop-color="rgb(1.502991%, 31.845093%, 56.82373%)" offset="0.9375"/><stop stop-opacity="1" stop-color="rgb(1.420593%, 32.015991%, 57.197571%)" offset="0.945312"/><stop stop-opacity="1" stop-color="rgb(1.33667%, 32.18689%, 57.571411%)" offset="0.953125"/><stop stop-opacity="1" stop-color="rgb(1.254272%, 32.357788%, 57.945251%)" offset="0.960937"/><stop stop-opacity="1" stop-color="rgb(1.171875%, 32.528687%, 58.317566%)" offset="0.96875"/><stop stop-opacity="1" stop-color="rgb(1.089478%, 32.699585%, 58.691406%)" offset="0.976562"/><stop stop-opacity="1" stop-color="rgb(1.005554%, 32.872009%, 59.065247%)" offset="0.984375"/><stop stop-opacity="1" stop-color="rgb(0.923157%, 33.042908%, 59.439087%)" offset="0.992187"/><stop stop-opacity="1" stop-color="rgb(0.840759%, 33.213806%, 59.811401%)" offset="1"/></linearGradient><clipPath id="c53e07d0f4"><path d="M 252.617188 4.960938 L 372.089844 4.960938 L 372.089844 22.78125 L 252.617188 22.78125 Z M 252.617188 4.960938 " clip-rule="nonzero"/></clipPath><clipPath id="fa63f772a2"><path d="M 372.089844 13.871094 L 252.644531 22.78125 L 252.644531 4.960938 Z M 372.089844 13.871094 " clip-rule="nonzero"/></clipPath><clipPath id="604d564630"><path d="M 252.625 33.285156 L 337.296875 33.285156 L 337.296875 43.5 L 252.625 43.5 Z M 252.625 33.285156 " clip-rule="nonzero"/></clipPath><clipPath id="55c8bbeced"><path d="M 337.296875 38.390625 L 252.648438 43.5 L 252.648438 33.285156 Z M 337.296875 38.390625 " clip-rule="nonzero"/></clipPath></defs><path stroke-linecap="butt" transform="matrix(1.224297, 0, 0, 1.224297, 119.534132, -9.041852)" fill="none" stroke-linejoin="miter" d="M 45.486137 17.662291 L 21.626774 17.662291 C 15.328515 17.662291 10.501126 20.176489 8.519759 25.600522 L 3.90614 38.283187 C 3.48498 39.454139 3.609414 40.631474 4.368778 41.34936 L 8.111361 44.374056 C 8.519759 44.836694 9.15788 44.999415 9.99701 44.999415 L 35.569729 44.999415 L 37.969065 38.40762 L 24.743997 38.40762 C 23.563473 38.40762 22.979592 37.482344 23.349702 36.346488 L 27.009329 26.305646 C 27.468776 25.137884 28.690779 24.257276 29.817063 24.257276 L 43.0868 24.257276 Z M 46.574134 44.999415 L 66.690914 44.999415 C 73.037032 44.999415 77.867612 42.478835 79.836216 37.064374 L 84.462597 24.378519 C 84.922045 23.118229 84.676368 21.937705 83.958481 21.23258 L 80.215899 18.28765 C 79.794738 17.828202 79.127901 17.662291 78.288772 17.662291 L 58.171992 17.662291 C 51.915211 17.662291 47.084631 20.176489 45.106454 25.600522 L 40.492836 38.283187 C 40.071676 39.454139 40.196109 40.631474 40.955474 41.34936 L 44.647007 44.374056 C 45.064976 44.836694 45.741385 44.999415 46.574134 44.999415 Z M 57.543442 36.346488 L 61.196688 26.305646 C 61.656135 25.137884 62.916425 24.257276 64.004422 24.257276 L 65.902834 24.257276 C 67.070596 24.257276 67.747005 25.137884 67.287557 26.305646 L 63.62474 36.346488 C 63.25782 37.482344 61.952862 38.40762 60.858483 38.40762 L 58.969644 38.40762 C 57.792309 38.40762 57.16695 37.482344 57.543442 36.346488 Z M 57.543442 36.346488 " stroke="#074981" stroke-width="11.025" stroke-opacity="1" stroke-miterlimit="4"/><g fill="#ffffff" fill-opacity="1"><g transform="translate(119.534132, 46.051497)"><g><path d="M 55.6875 -33.476562 L 26.480469 -33.476562 C 18.769531 -33.476562 12.855469 -30.390625 10.4375 -23.757812 L 4.78125 -8.226562 C 4.269531 -6.789062 4.421875 -5.347656 5.347656 -4.472656 L 9.925781 -0.769531 C 10.4375 -0.207031 11.210938 0 12.238281 0 L 43.554688 0 L 46.484375 -8.074219 L 30.285156 -8.074219 C 28.847656 -8.074219 28.128906 -9.203125 28.589844 -10.59375 L 33.0625 -22.882812 C 33.628906 -24.320312 35.121094 -25.402344 36.507812 -25.402344 L 52.757812 -25.402344 Z M 55.6875 -33.476562 "/></g></g></g><g fill="#ffffff" fill-opacity="1"><g transform="translate(164.52709, 46.051497)"><g><path d="M 12.03125 0 L 36.664062 0 C 44.425781 0 50.339844 -3.085938 52.757812 -9.71875 L 58.414062 -25.246094 C 58.980469 -26.789062 58.671875 -28.230469 57.796875 -29.105469 L 53.21875 -32.703125 C 52.707031 -33.269531 51.882812 -33.476562 50.855469 -33.476562 L 26.222656 -33.476562 C 18.5625 -33.476562 12.648438 -30.390625 10.234375 -23.757812 L 4.578125 -8.226562 C 4.0625 -6.789062 4.214844 -5.347656 5.140625 -4.472656 L 9.667969 -0.769531 C 10.179688 -0.207031 11.003906 0 12.03125 0 Z M 25.453125 -10.59375 L 29.925781 -22.882812 C 30.492188 -24.320312 32.035156 -25.402344 33.371094 -25.402344 L 35.6875 -25.402344 C 37.125 -25.402344 37.949219 -24.320312 37.382812 -22.882812 L 32.910156 -10.59375 C 32.445312 -9.203125 30.851562 -8.074219 29.515625 -8.074219 L 27.203125 -8.074219 C 25.761719 -8.074219 24.992188 -9.203125 25.453125 -10.59375 Z M 25.453125 -10.59375 "/></g></g></g><g clip-path="url(#741c41dd80)"><path fill="#585858" d="M 55.378906 4.960938 L 59.972656 4.960938 C 60.542969 5 61.113281 5.03125 61.683594 5.050781 C 62.164062 5.066406 62.59375 5.097656 62.980469 5.148438 C 63.410156 5.203125 63.839844 5.257812 64.273438 5.316406 C 64.402344 5.335938 64.492188 5.414062 64.628906 5.433594 C 65.878906 5.59375 67.09375 5.746094 68.371094 6.011719 C 69.265625 6.199219 70.136719 6.375 70.984375 6.542969 C 71.546875 6.65625 72.089844 6.789062 72.617188 6.941406 C 73.597656 7.226562 74.601562 7.519531 75.636719 7.824219 C 76.171875 7.980469 76.699219 8.164062 77.226562 8.375 C 78.648438 8.945312 80.0625 9.464844 81.425781 10.105469 C 82.835938 10.765625 84.09375 11.378906 85.195312 11.949219 C 85.707031 12.214844 86.84375 12.871094 88.605469 13.925781 C 89.070312 14.203125 89.527344 14.511719 89.976562 14.847656 C 91.042969 15.648438 92.140625 16.433594 93.164062 17.265625 C 93.988281 17.929688 94.816406 18.609375 95.648438 19.300781 C 96.226562 19.78125 96.703125 20.226562 97.078125 20.628906 C 98.039062 21.667969 99.007812 22.664062 99.902344 23.707031 C 100.828125 24.785156 101.585938 25.679688 102.183594 26.398438 C 102.574219 26.867188 102.996094 27.464844 103.449219 28.183594 C 104.105469 29.222656 104.925781 30.355469 105.542969 31.507812 C 105.96875 32.304688 106.398438 33.097656 106.828125 33.875 C 107.113281 34.402344 107.363281 34.898438 107.578125 35.371094 C 108.105469 36.53125 108.609375 37.65625 109.09375 38.742188 C 109.175781 38.9375 109.253906 39.144531 109.328125 39.375 C 109.621094 40.3125 109.925781 41.242188 110.242188 42.167969 C 110.4375 42.734375 110.59375 43.269531 110.707031 43.777344 C 110.976562 44.949219 111.242188 46.113281 111.5 47.265625 C 111.550781 47.507812 111.59375 47.734375 111.625 47.957031 C 111.757812 48.894531 111.894531 49.832031 112.039062 50.769531 C 112.160156 51.566406 112.234375 52.238281 112.253906 52.78125 C 112.289062 53.804688 112.339844 54.828125 112.402344 55.851562 L 112.402344 56.945312 C 112.332031 58.082031 112.273438 59.21875 112.234375 60.359375 C 112.226562 60.519531 112.214844 60.675781 112.195312 60.820312 C 112.066406 61.847656 111.910156 62.878906 111.757812 63.949219 C 111.503906 65.703125 111.054688 67.507812 110.660156 69.175781 C 110.53125 69.722656 110.378906 70.257812 110.203125 70.785156 C 109.847656 71.832031 109.484375 72.902344 109.105469 74 C 109.042969 74.183594 108.960938 74.390625 108.859375 74.613281 C 108.476562 75.46875 108.082031 76.34375 107.679688 77.242188 C 107.4375 77.78125 107.191406 78.28125 106.941406 78.738281 C 106.445312 79.660156 105.941406 80.589844 105.425781 81.527344 C 104.800781 82.664062 104.019531 83.753906 103.324219 84.835938 C 102.898438 85.496094 102.527344 86.019531 102.207031 86.398438 C 101.15625 87.652344 100.105469 88.945312 98.980469 90.15625 C 98.359375 90.820312 97.738281 91.488281 97.117188 92.152344 C 96.664062 92.636719 96.183594 93.089844 95.671875 93.507812 C 94.890625 94.148438 94.109375 94.789062 93.328125 95.429688 C 92.144531 96.398438 90.90625 97.285156 89.671875 98.199219 C 89.226562 98.527344 88.765625 98.828125 88.28125 99.105469 C 87.132812 99.761719 85.953125 100.492188 84.78125 101.09375 C 83.507812 101.75 82.28125 102.308594 81.007812 102.921875 C 80.820312 103.015625 80.628906 103.097656 80.433594 103.175781 C 79.289062 103.621094 78.121094 104.089844 76.933594 104.574219 C 76.550781 104.730469 76.167969 104.855469 75.773438 104.96875 C 74.800781 105.253906 73.675781 105.578125 72.398438 105.949219 C 71.835938 106.113281 71.085938 106.289062 70.152344 106.472656 C 68.628906 106.773438 67.210938 107.082031 65.695312 107.261719 C 64.960938 107.351562 64.222656 107.445312 63.488281 107.542969 C 62.917969 107.621094 62.355469 107.671875 61.808594 107.699219 C 60.605469 107.753906 59.398438 107.8125 58.191406 107.867188 L 57.101562 107.867188 C 55.859375 107.800781 54.617188 107.742188 53.371094 107.6875 C 53.082031 107.675781 52.789062 107.667969 52.503906 107.628906 C 51.234375 107.457031 49.964844 107.296875 48.691406 107.136719 C 48.3125 107.089844 47.960938 107.03125 47.636719 106.964844 C 46.589844 106.746094 45.523438 106.527344 44.429688 106.308594 C 43.84375 106.195312 43.285156 106.058594 42.757812 105.90625 C 41.546875 105.558594 40.355469 105.207031 39.175781 104.847656 C 38.863281 104.753906 38.507812 104.625 38.105469 104.464844 C 37.265625 104.125 36.402344 103.777344 35.515625 103.429688 C 34.964844 103.207031 34.449219 102.988281 33.96875 102.761719 C 32.933594 102.277344 31.914062 101.789062 30.90625 101.292969 C 29.535156 100.613281 28.195312 99.785156 26.894531 99.019531 C 26.40625 98.734375 25.9375 98.425781 25.488281 98.09375 C 24.722656 97.527344 23.9375 96.945312 23.136719 96.339844 C 21.890625 95.398438 20.699219 94.386719 19.515625 93.398438 C 18.984375 92.957031 18.523438 92.523438 18.132812 92.101562 C 17.25 91.136719 16.277344 90.136719 15.425781 89.144531 C 14.601562 88.1875 13.789062 87.226562 12.976562 86.257812 C 12.816406 86.066406 12.675781 85.878906 12.554688 85.691406 C 11.917969 84.730469 11.28125 83.757812 10.640625 82.78125 C 10.332031 82.308594 10.042969 81.828125 9.777344 81.339844 C 9.292969 80.453125 8.835938 79.609375 8.402344 78.808594 C 8.128906 78.308594 7.878906 77.808594 7.660156 77.308594 C 7.257812 76.40625 6.828125 75.453125 6.367188 74.441406 C 6.199219 74.070312 6.035156 73.628906 5.878906 73.125 C 5.613281 72.285156 5.332031 71.425781 5.035156 70.539062 C 4.855469 70.019531 4.710938 69.507812 4.59375 69 C 4.386719 68.09375 4.179688 67.183594 3.96875 66.277344 C 3.832031 65.6875 3.730469 65.136719 3.652344 64.636719 C 3.480469 63.464844 3.316406 62.335938 3.160156 61.246094 C 3.117188 60.964844 3.089844 60.660156 3.074219 60.335938 C 3.019531 59.140625 2.964844 57.945312 2.902344 56.75 L 2.902344 56.238281 C 2.964844 54.988281 3.023438 53.738281 3.078125 52.488281 C 3.089844 52.207031 3.113281 51.925781 3.15625 51.640625 C 3.421875 49.738281 3.621094 48.40625 3.753906 47.640625 C 3.816406 47.277344 3.902344 46.851562 4.019531 46.363281 C 4.253906 45.34375 4.488281 44.320312 4.71875 43.296875 C 4.757812 43.121094 4.8125 42.929688 4.882812 42.722656 C 5.320312 41.410156 5.75 40.128906 6.175781 38.882812 C 6.238281 38.703125 6.328125 38.480469 6.445312 38.21875 C 6.882812 37.242188 7.320312 36.265625 7.765625 35.292969 C 7.996094 34.792969 8.246094 34.292969 8.519531 33.792969 C 9.207031 32.535156 9.863281 31.246094 10.640625 30.046875 C 11.308594 29.015625 11.988281 27.984375 12.679688 26.960938 C 12.773438 26.820312 12.882812 26.675781 13.003906 26.53125 C 13.777344 25.617188 14.550781 24.703125 15.324219 23.792969 C 15.65625 23.402344 16.027344 22.984375 16.449219 22.535156 C 17.105469 21.835938 17.722656 21.171875 18.304688 20.550781 C 18.628906 20.203125 18.992188 19.859375 19.398438 19.523438 C 20.25 18.8125 21.105469 18.105469 21.96875 17.40625 C 23.195312 16.410156 24.480469 15.476562 25.75 14.535156 C 25.9375 14.394531 26.214844 14.207031 26.457031 14.066406 C 27.324219 13.5625 28.199219 13.050781 29.082031 12.53125 C 29.609375 12.222656 30.101562 11.953125 30.558594 11.71875 C 31.765625 11.105469 32.628906 10.722656 33.648438 10.21875 C 34.164062 9.964844 34.640625 9.75 35.078125 9.578125 C 36.265625 9.101562 37.484375 8.613281 38.734375 8.109375 C 38.875 8.050781 39.214844 7.945312 39.75 7.792969 C 40.839844 7.484375 41.929688 7.164062 43.011719 6.839844 C 43.265625 6.765625 43.546875 6.695312 43.859375 6.628906 C 45.160156 6.355469 46.460938 6.09375 47.761719 5.847656 C 48.664062 5.675781 49.683594 5.5625 50.644531 5.429688 C 50.800781 5.40625 50.90625 5.328125 51.054688 5.3125 C 51.453125 5.265625 51.847656 5.214844 52.238281 5.160156 C 52.601562 5.109375 52.976562 5.074219 53.363281 5.0625 C 54.035156 5.035156 54.707031 5 55.378906 4.960938 Z M 55.417969 7.746094 C 54.023438 7.78125 53.136719 7.824219 52.761719 7.878906 C 51.6875 8.023438 50.597656 8.167969 49.484375 8.3125 C 48.910156 8.382812 48.355469 8.472656 47.820312 8.582031 C 46.851562 8.777344 45.886719 8.972656 44.917969 9.171875 C 44.371094 9.28125 43.828125 9.417969 43.28125 9.578125 C 42.378906 9.839844 41.472656 10.105469 40.570312 10.367188 C 40.15625 10.480469 39.878906 10.5625 39.738281 10.617188 C 38.265625 11.195312 36.796875 11.789062 35.335938 12.394531 C 34.257812 12.917969 33.183594 13.441406 32.109375 13.964844 C 31.976562 14.027344 31.800781 14.085938 31.664062 14.164062 C 31.078125 14.496094 30.300781 14.949219 29.324219 15.527344 C 28.972656 15.734375 28.621094 15.9375 28.269531 16.144531 C 27.914062 16.347656 27.578125 16.574219 27.25 16.816406 C 25.992188 17.753906 24.730469 18.648438 23.535156 19.640625 C 22.671875 20.351562 21.820312 21.054688 20.980469 21.75 C 20.824219 21.875 20.71875 21.972656 20.65625 22.035156 C 19.859375 22.890625 19.074219 23.734375 18.296875 24.566406 C 17.277344 25.65625 16.320312 26.835938 15.375 27.957031 C 15.070312 28.316406 14.789062 28.691406 14.527344 29.085938 C 14.03125 29.839844 13.535156 30.59375 13.035156 31.351562 C 12.722656 31.820312 12.433594 32.296875 12.167969 32.789062 C 11.734375 33.574219 11.304688 34.363281 10.875 35.152344 C 10.605469 35.644531 10.355469 36.144531 10.125 36.65625 C 9.777344 37.425781 9.429688 38.199219 9.082031 38.96875 C 8.832031 39.523438 8.632812 40.019531 8.484375 40.457031 C 8.164062 41.417969 7.851562 42.371094 7.550781 43.320312 C 7.386719 43.828125 7.246094 44.359375 7.125 44.914062 C 6.976562 45.59375 6.816406 46.285156 6.652344 46.992188 C 6.511719 47.59375 6.40625 48.144531 6.332031 48.644531 C 6.199219 49.554688 6.058594 50.503906 5.917969 51.484375 C 5.839844 52.011719 5.789062 52.558594 5.765625 53.117188 C 5.730469 53.917969 5.691406 54.746094 5.648438 55.59375 C 5.617188 56.144531 5.621094 56.699219 5.648438 57.261719 C 5.699219 58.164062 5.738281 59.023438 5.769531 59.835938 C 5.789062 60.359375 5.839844 60.894531 5.925781 61.445312 C 6.070312 62.394531 6.203125 63.292969 6.328125 64.144531 C 6.398438 64.652344 6.503906 65.1875 6.632812 65.75 C 6.824219 66.574219 7.003906 67.363281 7.175781 68.117188 C 7.296875 68.671875 7.449219 69.210938 7.621094 69.734375 C 7.921875 70.644531 8.210938 71.523438 8.488281 72.363281 C 8.652344 72.863281 8.847656 73.351562 9.070312 73.839844 C 9.421875 74.613281 9.773438 75.386719 10.121094 76.15625 C 10.371094 76.722656 10.621094 77.222656 10.867188 77.667969 C 11.292969 78.4375 11.71875 79.21875 12.148438 80.011719 C 12.386719 80.460938 12.675781 80.9375 13.015625 81.445312 C 13.527344 82.226562 14.03125 82.984375 14.519531 83.726562 C 14.78125 84.121094 15.0625 84.5 15.363281 84.859375 C 15.960938 85.566406 16.558594 86.273438 17.160156 86.980469 C 17.550781 87.445312 17.921875 87.867188 18.273438 88.242188 C 19.078125 89.105469 19.859375 89.9375 20.613281 90.738281 C 20.730469 90.863281 20.863281 90.988281 21.023438 91.117188 C 21.867188 91.808594 22.679688 92.480469 23.460938 93.128906 C 24.632812 94.097656 25.878906 94.988281 27.117188 95.910156 C 27.515625 96.207031 27.921875 96.476562 28.332031 96.71875 C 28.753906 96.96875 29.175781 97.214844 29.597656 97.457031 C 30.03125 97.714844 30.46875 97.96875 30.902344 98.222656 C 31.328125 98.46875 31.773438 98.707031 32.238281 98.929688 C 33.292969 99.441406 34.34375 99.949219 35.402344 100.453125 C 35.75 100.621094 36.113281 100.757812 36.46875 100.902344 C 37.308594 101.238281 38.148438 101.574219 38.984375 101.910156 C 39.515625 102.121094 40.046875 102.304688 40.578125 102.460938 C 41.3125 102.675781 42.054688 102.890625 42.804688 103.105469 C 43.097656 103.195312 43.398438 103.285156 43.703125 103.375 C 43.992188 103.457031 44.296875 103.53125 44.617188 103.597656 C 45.710938 103.820312 46.808594 104.042969 47.90625 104.257812 C 48.449219 104.363281 49.003906 104.453125 49.570312 104.527344 C 50.480469 104.644531 51.390625 104.761719 52.300781 104.878906 C 52.855469 104.953125 53.414062 104.996094 53.984375 105.019531 C 54.917969 105.054688 55.855469 105.09375 56.789062 105.136719 C 57.363281 105.160156 57.925781 105.160156 58.476562 105.136719 C 59.136719 105.113281 59.796875 105.082031 60.457031 105.050781 C 61.523438 105.023438 62.222656 104.988281 62.546875 104.945312 C 63.636719 104.800781 64.730469 104.65625 65.824219 104.511719 C 66.398438 104.4375 66.953125 104.347656 67.488281 104.242188 C 68.148438 104.109375 68.808594 103.976562 69.464844 103.839844 C 70.1875 103.695312 70.925781 103.566406 71.613281 103.367188 C 72.808594 103.015625 74.007812 102.671875 75.203125 102.324219 C 75.371094 102.277344 75.53125 102.222656 75.683594 102.164062 C 76.75 101.738281 77.8125 101.3125 78.875 100.886719 C 79.394531 100.679688 79.910156 100.453125 80.417969 100.210938 C 81.394531 99.746094 82.371094 99.28125 83.347656 98.8125 C 83.488281 98.746094 83.585938 98.699219 83.644531 98.664062 C 84.265625 98.308594 85.574219 97.542969 87.570312 96.371094 C 88.496094 95.683594 89.421875 94.992188 90.351562 94.296875 C 91.597656 93.367188 92.789062 92.351562 93.976562 91.363281 C 94.378906 91.03125 94.734375 90.699219 95.039062 90.375 C 96.175781 89.164062 97.335938 87.953125 98.410156 86.675781 C 98.921875 86.066406 99.425781 85.46875 99.925781 84.878906 C 100.230469 84.519531 100.511719 84.144531 100.769531 83.753906 C 101.253906 83.019531 101.75 82.273438 102.25 81.511719 C 102.585938 81.007812 102.875 80.53125 103.117188 80.085938 C 103.566406 79.257812 104.019531 78.429688 104.46875 77.605469 C 104.714844 77.15625 104.964844 76.652344 105.214844 76.101562 C 105.578125 75.292969 105.933594 74.503906 106.277344 73.738281 C 106.515625 73.203125 106.71875 72.6875 106.882812 72.195312 C 107.164062 71.34375 107.449219 70.472656 107.734375 69.574219 C 107.890625 69.085938 108.035156 68.558594 108.160156 67.996094 C 108.441406 66.753906 108.777344 65.480469 108.96875 64.21875 C 109.097656 63.355469 109.234375 62.445312 109.375 61.484375 C 109.457031 60.933594 109.511719 60.378906 109.539062 59.8125 C 109.582031 58.933594 109.621094 58.082031 109.660156 57.25 C 109.6875 56.691406 109.6875 56.132812 109.660156 55.574219 C 109.617188 54.679688 109.574219 53.785156 109.53125 52.894531 C 109.503906 52.308594 109.449219 51.78125 109.375 51.3125 C 109.242188 50.515625 109.125 49.699219 109.015625 48.859375 C 108.957031 48.425781 108.894531 48.046875 108.820312 47.726562 C 108.589844 46.707031 108.355469 45.6875 108.121094 44.660156 C 107.996094 44.113281 107.84375 43.574219 107.671875 43.046875 C 107.390625 42.195312 107.113281 41.347656 106.832031 40.503906 C 106.660156 39.984375 106.460938 39.476562 106.234375 38.976562 C 105.878906 38.195312 105.523438 37.410156 105.167969 36.628906 C 104.933594 36.113281 104.683594 35.613281 104.417969 35.125 C 103.964844 34.289062 103.519531 33.480469 103.089844 32.699219 C 102.828125 32.21875 102.535156 31.742188 102.21875 31.265625 C 101.730469 30.53125 101.25 29.800781 100.773438 29.078125 C 100.523438 28.695312 100.25 28.332031 99.957031 27.984375 C 99.359375 27.28125 98.761719 26.574219 98.167969 25.867188 C 97.0625 24.558594 95.859375 23.328125 94.6875 22.082031 C 94.582031 21.96875 94.46875 21.863281 94.351562 21.765625 C 93.3125 20.910156 92.273438 20.054688 91.238281 19.199219 C 91.078125 19.066406 90.832031 18.878906 90.496094 18.636719 C 89.742188 18.070312 88.988281 17.507812 88.230469 16.945312 C 87.804688 16.628906 87.359375 16.335938 86.902344 16.0625 C 86.097656 15.589844 85.289062 15.121094 84.480469 14.648438 C 83.96875 14.351562 83.476562 14.089844 83 13.859375 C 82.113281 13.433594 81.265625 13.023438 80.449219 12.632812 C 79.964844 12.398438 79.449219 12.171875 78.910156 11.953125 C 78.015625 11.597656 77.148438 11.25 76.304688 10.910156 C 75.78125 10.703125 75.25 10.519531 74.714844 10.359375 C 73.863281 10.113281 73.015625 9.867188 72.167969 9.621094 C 71.742188 9.496094 71.324219 9.359375 70.886719 9.269531 C 69.769531 9.042969 68.648438 8.820312 67.527344 8.59375 C 66.980469 8.484375 66.425781 8.390625 65.863281 8.320312 C 65.003906 8.207031 64.105469 8.089844 63.171875 7.964844 C 62.605469 7.886719 62.046875 7.839844 61.492188 7.8125 C 60.585938 7.773438 59.648438 7.730469 58.679688 7.691406 C 58.09375 7.667969 57.550781 7.664062 57.046875 7.679688 C 56.507812 7.695312 55.960938 7.71875 55.417969 7.746094 Z M 55.417969 7.746094 " fill-opacity="1" fill-rule="nonzero"/></g><g clip-path="url(#eb666fa118)"><g clip-path="url(#7e6930a23c)"><path fill="url(#ee8d9d01ab)" d="M 2.902344 4.960938 L 2.902344 107.867188 L 112.402344 107.867188 L 112.402344 4.960938 Z M 2.902344 4.960938 " fill-rule="nonzero"/></g></g><path fill="#1f1f1f" d="M 36.929688 21.566406 C 36.84375 21.652344 36.742188 21.710938 36.625 21.75 C 36.707031 21.644531 36.808594 21.582031 36.929688 21.566406 Z M 36.929688 21.566406 " fill-opacity="1" fill-rule="nonzero"/><path fill="#1d272d" d="M 44.796875 44.351562 C 44.8125 44.449219 44.769531 44.535156 44.664062 44.609375 C 44.640625 44.625 44.625 44.644531 44.609375 44.667969 C 44.5625 44.761719 44.496094 44.835938 44.414062 44.898438 C 44.316406 44.96875 44.246094 45.035156 44.199219 45.097656 C 44.066406 45.277344 43.929688 45.449219 43.777344 45.617188 C 43.769531 45.625 43.765625 45.636719 43.765625 45.648438 C 43.761719 45.660156 43.761719 45.675781 43.761719 45.6875 C 43.761719 45.695312 43.753906 45.703125 43.742188 45.703125 C 43.742188 45.703125 43.742188 45.703125 43.738281 45.703125 C 43.699219 45.6875 43.679688 45.695312 43.679688 45.726562 C 43.679688 45.761719 43.664062 45.777344 43.632812 45.785156 C 43.625 45.785156 43.617188 45.785156 43.609375 45.785156 C 43.59375 45.785156 43.582031 45.789062 43.574219 45.804688 C 43.507812 45.90625 43.4375 46 43.363281 46.089844 C 43.195312 46.285156 43.007812 46.460938 42.796875 46.613281 Z M 44.796875 44.351562 " fill-opacity="1" fill-rule="nonzero"/><path fill="#1f1f1f" d="M 93.109375 53.367188 L 93.902344 54 C 93.890625 54.007812 93.875 54.007812 93.851562 53.996094 C 93.574219 53.820312 93.328125 53.613281 93.109375 53.367188 Z M 93.109375 53.367188 " fill-opacity="1" fill-rule="nonzero"/><path fill="#ff2127" d="M 76.398438 57.039062 C 77.003906 57.210938 77.621094 57.359375 78.1875 57.59375 C 79.140625 57.980469 80.007812 58.421875 80.796875 58.910156 C 81.597656 59.40625 82.339844 60 83.003906 60.683594 C 83.226562 60.910156 83.449219 61.117188 83.652344 61.367188 C 84.035156 61.839844 84.503906 62.300781 84.816406 62.804688 C 85.035156 63.160156 85.242188 63.515625 85.441406 63.871094 C 85.554688 64.078125 85.777344 64.332031 85.851562 64.554688 C 85.984375 64.9375 86.125 65.320312 86.269531 65.703125 C 86.449219 66.1875 86.578125 66.570312 86.652344 66.863281 C 87.160156 68.847656 87.308594 70.933594 86.890625 72.917969 C 86.765625 73.515625 86.597656 74.179688 86.382812 74.765625 C 86.03125 75.71875 85.664062 76.546875 85.277344 77.25 C 84.875 77.992188 84.335938 78.730469 83.671875 79.460938 C 83.1875 80.03125 82.757812 80.472656 82.386719 80.789062 C 81.992188 81.125 81.488281 81.5 80.867188 81.917969 C 80.570312 82.113281 80.28125 82.289062 79.996094 82.445312 C 79.605469 82.660156 79.304688 82.804688 79.09375 82.886719 C 78.527344 83.105469 77.957031 83.378906 77.402344 83.527344 C 76.515625 83.765625 75.9375 83.902344 75.664062 83.929688 C 74.917969 84.003906 74.125 84.105469 73.441406 84.117188 C 72.535156 84.136719 71.679688 84.070312 70.878906 83.925781 C 70.480469 83.855469 69.90625 83.707031 69.164062 83.484375 C 69.03125 83.441406 68.90625 83.398438 68.796875 83.351562 C 68.683594 83.304688 68.574219 83.261719 68.464844 83.222656 C 68.332031 83.164062 68.199219 83.109375 68.070312 83.050781 C 67.976562 83.011719 67.84375 82.960938 67.667969 82.898438 C 67.386719 82.796875 67.125 82.679688 66.890625 82.535156 C 66.5 82.296875 65.996094 81.980469 65.390625 81.585938 C 65.199219 81.464844 65.011719 81.332031 64.828125 81.1875 C 64.636719 81.039062 64.460938 80.894531 64.296875 80.753906 C 62.457031 79.1875 61.066406 77.148438 60.292969 74.875 C 60.019531 74.082031 59.800781 73.167969 59.636719 72.132812 C 59.5625 71.660156 59.523438 71.207031 59.523438 70.773438 C 59.519531 70.132812 59.535156 69.675781 59.574219 69.402344 C 59.667969 68.777344 59.710938 68.144531 59.851562 67.542969 C 59.925781 67.230469 59.988281 66.929688 60.101562 66.621094 C 60.257812 66.191406 60.386719 65.722656 60.550781 65.332031 C 61.035156 64.1875 61.621094 63.074219 62.355469 62.058594 C 62.449219 61.929688 62.582031 61.773438 62.753906 61.585938 C 62.941406 61.382812 63.109375 61.15625 63.300781 60.96875 C 64.140625 60.132812 64.738281 59.566406 65.648438 58.980469 C 66.804688 58.199219 68.0625 57.628906 69.417969 57.269531 C 71.144531 56.8125 72.835938 56.640625 74.503906 56.757812 C 75 56.789062 75.632812 56.886719 76.398438 57.039062 Z M 71.066406 61.308594 C 70.894531 61.300781 70.726562 61.335938 70.550781 61.410156 C 70.21875 61.484375 69.9375 61.570312 69.707031 61.671875 C 69.453125 61.777344 69.179688 61.902344 68.878906 62.050781 C 68.5625 62.203125 68.300781 62.347656 68.085938 62.492188 C 67.304688 63.011719 66.617188 63.605469 66.027344 64.351562 C 65.699219 64.765625 65.4375 65.125 65.242188 65.433594 C 64.953125 65.894531 64.683594 66.425781 64.4375 67.027344 C 63.964844 68.179688 63.761719 69.375 63.832031 70.621094 C 63.847656 70.871094 63.863281 71.125 63.882812 71.375 C 63.898438 71.636719 63.9375 71.882812 63.996094 72.121094 C 64.132812 72.667969 64.269531 73.191406 64.410156 73.6875 C 64.613281 74.382812 64.929688 74.992188 65.34375 75.570312 C 65.527344 75.824219 65.710938 76.082031 65.894531 76.335938 C 66.4375 77.085938 67.089844 77.597656 67.863281 78.132812 C 68.097656 78.296875 68.371094 78.460938 68.6875 78.625 C 69.003906 78.796875 69.300781 78.9375 69.570312 79.050781 C 70.472656 79.441406 71.285156 79.660156 72.003906 79.714844 C 72.683594 79.765625 73.582031 79.75 74.699219 79.667969 C 74.949219 79.648438 75.195312 79.601562 75.433594 79.523438 C 75.648438 79.453125 75.863281 79.394531 76.074219 79.347656 C 76.46875 79.257812 76.855469 79.113281 77.234375 78.921875 C 77.515625 78.777344 77.789062 78.648438 78.082031 78.523438 C 78.277344 78.441406 78.480469 78.328125 78.695312 78.1875 C 79.753906 77.484375 80.628906 76.601562 81.320312 75.539062 C 81.640625 75.039062 81.878906 74.644531 82.082031 74.144531 C 82.332031 73.523438 82.523438 72.925781 82.65625 72.355469 C 83.050781 70.648438 82.859375 68.792969 82.257812 67.144531 C 82.128906 66.796875 81.964844 66.441406 81.765625 66.070312 C 81.496094 65.570312 81.285156 65.226562 81.140625 65.039062 C 80.960938 64.8125 80.792969 64.597656 80.636719 64.394531 C 80.453125 64.15625 80.265625 63.941406 80.074219 63.753906 C 79.425781 63.121094 78.664062 62.578125 77.878906 62.105469 C 77.8125 62.066406 77.75 62.070312 77.699219 62.011719 C 77.679688 61.992188 77.65625 61.976562 77.628906 61.964844 C 77.527344 61.929688 77.4375 61.882812 77.355469 61.820312 C 77.332031 61.804688 77.308594 61.792969 77.28125 61.792969 C 77.234375 61.785156 77.191406 61.769531 77.15625 61.738281 C 77.136719 61.722656 77.117188 61.707031 77.09375 61.699219 C 76.988281 61.652344 76.882812 61.613281 76.777344 61.570312 C 76.207031 61.339844 75.589844 61.195312 74.921875 61.125 C 74.59375 61.09375 74.257812 61.066406 73.910156 61.042969 C 73.160156 60.996094 72.457031 61.03125 71.800781 61.140625 C 71.726562 61.15625 71.605469 61.183594 71.433594 61.230469 C 71.3125 61.265625 71.1875 61.289062 71.066406 61.308594 Z M 71.066406 61.308594 " fill-opacity="1" fill-rule="nonzero"/><path fill="#1f1f1f" d="M 71.066406 61.308594 L 70.550781 61.410156 C 70.726562 61.335938 70.894531 61.300781 71.066406 61.308594 Z M 71.066406 61.308594 " fill-opacity="1" fill-rule="nonzero"/><path fill="#ff2429" d="M 87.167969 70.347656 C 87.167969 71.253906 87.078125 72.152344 86.902344 73.042969 C 86.722656 73.933594 86.460938 74.796875 86.109375 75.636719 C 85.761719 76.476562 85.332031 77.273438 84.824219 78.027344 C 84.320312 78.78125 83.742188 79.480469 83.097656 80.121094 C 82.453125 80.765625 81.75 81.335938 80.992188 81.84375 C 80.234375 82.347656 79.433594 82.773438 78.589844 83.121094 C 77.746094 83.46875 76.878906 83.730469 75.984375 83.90625 C 75.089844 84.082031 74.183594 84.171875 73.273438 84.171875 C 72.359375 84.171875 71.457031 84.082031 70.5625 83.90625 C 69.667969 83.730469 68.796875 83.46875 67.953125 83.121094 C 67.113281 82.773438 66.3125 82.347656 65.550781 81.84375 C 64.792969 81.335938 64.089844 80.765625 63.445312 80.121094 C 62.800781 79.480469 62.226562 78.78125 61.71875 78.027344 C 61.210938 77.273438 60.785156 76.476562 60.433594 75.636719 C 60.085938 74.796875 59.820312 73.933594 59.644531 73.042969 C 59.464844 72.152344 59.375 71.253906 59.375 70.347656 C 59.375 69.4375 59.464844 68.539062 59.644531 67.648438 C 59.820312 66.757812 60.085938 65.894531 60.433594 65.054688 C 60.785156 64.214844 61.210938 63.417969 61.71875 62.664062 C 62.226562 61.910156 62.800781 61.210938 63.445312 60.570312 C 64.089844 59.925781 64.792969 59.355469 65.550781 58.851562 C 66.3125 58.34375 67.113281 57.917969 67.953125 57.570312 C 68.796875 57.226562 69.667969 56.960938 70.5625 56.785156 C 71.457031 56.609375 72.359375 56.519531 73.273438 56.519531 C 74.183594 56.519531 75.089844 56.609375 75.984375 56.785156 C 76.878906 56.960938 77.746094 57.226562 78.589844 57.570312 C 79.433594 57.917969 80.234375 58.34375 80.992188 58.851562 C 81.75 59.355469 82.453125 59.925781 83.097656 60.570312 C 83.742188 61.210938 84.320312 61.910156 84.824219 62.664062 C 85.332031 63.417969 85.761719 64.214844 86.109375 65.054688 C 86.460938 65.894531 86.722656 66.757812 86.902344 67.648438 C 87.078125 68.539062 87.167969 69.4375 87.167969 70.347656 Z M 87.167969 70.347656 " fill-opacity="1" fill-rule="nonzero"/><path fill="#2a3e98" d="M 83.070312 70.164062 C 83.070312 70.792969 83.007812 71.421875 82.878906 72.039062 C 82.753906 72.660156 82.566406 73.261719 82.316406 73.84375 C 82.070312 74.425781 81.765625 74.980469 81.402344 75.507812 C 81.042969 76.03125 80.632812 76.515625 80.171875 76.964844 C 79.714844 77.410156 79.214844 77.808594 78.675781 78.160156 C 78.132812 78.511719 77.5625 78.808594 76.964844 79.050781 C 76.363281 79.289062 75.746094 79.472656 75.109375 79.597656 C 74.472656 79.71875 73.828125 79.78125 73.179688 79.78125 C 72.527344 79.78125 71.886719 79.71875 71.25 79.597656 C 70.613281 79.472656 69.992188 79.289062 69.394531 79.050781 C 68.792969 78.808594 68.222656 78.511719 67.683594 78.160156 C 67.144531 77.808594 66.644531 77.410156 66.183594 76.964844 C 65.726562 76.515625 65.316406 76.03125 64.953125 75.507812 C 64.59375 74.980469 64.289062 74.425781 64.039062 73.84375 C 63.792969 73.261719 63.601562 72.660156 63.476562 72.039062 C 63.351562 71.421875 63.285156 70.792969 63.285156 70.164062 C 63.285156 69.53125 63.351562 68.90625 63.476562 68.285156 C 63.601562 67.667969 63.792969 67.066406 64.039062 66.480469 C 64.289062 65.898438 64.59375 65.34375 64.953125 64.820312 C 65.316406 64.292969 65.726562 63.808594 66.183594 63.363281 C 66.644531 62.914062 67.144531 62.515625 67.683594 62.164062 C 68.222656 61.816406 68.792969 61.519531 69.394531 61.277344 C 69.992188 61.035156 70.613281 60.851562 71.25 60.730469 C 71.886719 60.605469 72.527344 60.542969 73.179688 60.542969 C 73.828125 60.542969 74.472656 60.605469 75.109375 60.730469 C 75.746094 60.851562 76.363281 61.035156 76.964844 61.277344 C 77.5625 61.519531 78.132812 61.816406 78.675781 62.164062 C 79.214844 62.515625 79.714844 62.914062 80.171875 63.363281 C 80.632812 63.808594 81.042969 64.292969 81.402344 64.820312 C 81.765625 65.34375 82.070312 65.898438 82.316406 66.480469 C 82.566406 67.066406 82.753906 67.667969 82.878906 68.285156 C 83.007812 68.90625 83.070312 69.53125 83.070312 70.164062 Z M 83.070312 70.164062 " fill-opacity="1" fill-rule="nonzero"/><path fill="#ffffff" d="M 75.996094 64.730469 C 76.257812 65.070312 76.425781 65.464844 76.5 65.902344 C 76.644531 66.808594 76.601562 67.675781 76.363281 68.5 C 76.246094 68.917969 76.03125 69.308594 75.71875 69.679688 C 75.625 69.792969 75.527344 69.917969 75.429688 70.054688 C 75.308594 70.230469 75.148438 70.386719 75.007812 70.546875 C 74.589844 71.019531 74.191406 71.484375 73.808594 71.941406 C 73.515625 72.296875 73.273438 72.660156 72.945312 73.007812 C 72.765625 73.203125 72.597656 73.425781 72.449219 73.679688 C 72.4375 73.699219 72.441406 73.722656 72.464844 73.738281 C 72.46875 73.742188 72.472656 73.742188 72.480469 73.742188 C 72.730469 73.785156 72.960938 73.804688 73.164062 73.8125 C 74.351562 73.84375 75.515625 73.851562 76.648438 73.835938 C 76.9375 73.832031 76.9375 74.058594 76.894531 74.273438 C 76.839844 74.550781 76.789062 74.8125 76.785156 75.105469 C 76.78125 75.40625 76.855469 75.820312 76.398438 75.839844 C 74.738281 75.914062 73.070312 75.921875 71.398438 75.863281 C 70.886719 75.84375 70.414062 75.804688 69.992188 75.746094 C 69.785156 75.714844 69.777344 75.40625 69.796875 75.253906 C 69.945312 74.214844 70.292969 73.25 70.839844 72.355469 C 71.339844 71.636719 71.695312 71.15625 71.914062 70.917969 C 72.335938 70.449219 72.75 69.96875 73.148438 69.480469 C 73.503906 69.042969 73.804688 68.570312 74.042969 68.0625 C 74.09375 67.875 74.136719 67.6875 74.179688 67.503906 C 74.230469 67.296875 74.253906 67.113281 74.253906 66.957031 C 74.253906 66.726562 74.234375 66.484375 74.195312 66.222656 C 74.160156 65.984375 74.046875 65.820312 73.863281 65.722656 C 73.464844 65.519531 73.058594 65.492188 72.644531 65.648438 C 72.464844 65.714844 72.359375 65.855469 72.324219 66.0625 C 72.277344 66.332031 72.242188 66.59375 72.222656 66.859375 C 72.195312 67.214844 72.09375 67.609375 71.628906 67.578125 C 71.351562 67.558594 71.074219 67.523438 70.800781 67.476562 C 70.574219 67.441406 70.394531 67.46875 70.179688 67.496094 C 70.089844 67.507812 69.996094 67.476562 69.902344 67.40625 C 69.875 66.839844 69.960938 66.28125 70.167969 65.722656 C 70.25 65.496094 70.363281 65.285156 70.511719 65.09375 C 70.847656 64.660156 71.167969 64.25 71.648438 63.976562 C 71.898438 63.832031 72.207031 63.726562 72.566406 63.664062 C 73.390625 63.519531 74.195312 63.625 74.976562 63.984375 C 75.261719 64.113281 75.496094 64.269531 75.683594 64.453125 C 75.816406 64.585938 75.921875 64.675781 75.996094 64.730469 Z M 75.996094 64.730469 " fill-opacity="1" fill-rule="nonzero"/><path fill="#ff2429" d="M 73.289062 31.886719 L 72.355469 43.457031 L 57.5 49.308594 L 46.59375 42.539062 L 39.328125 50.832031 L 49.570312 59.78125 L 47.464844 74.304688 L 34.695312 79.902344 L 39.539062 90.914062 L 52.550781 85.929688 L 63.191406 94.835938 L 63.183594 100.507812 C 45.523438 101.324219 29.046875 92.277344 19.671875 76.539062 C 13.609375 61.363281 15.808594 48.449219 21.164062 37.902344 C 36.878906 6.945312 93.234375 3.652344 103.921875 53.804688 L 94.875 54.480469 L 85.359375 46.789062 L 85.558594 32.003906 L 73.285156 31.886719 Z M 73.289062 31.886719 " fill-opacity="1" fill-rule="nonzero"/><path stroke-linecap="butt" transform="matrix(1.224297, 0, 0, 1.224297, 111.998271, 42.13284)" fill="none" stroke-linejoin="miter" d="M 22.559007 36.765347 L 33.222017 36.765347 C 34.022859 36.765347 34.769461 36.602626 35.528826 36.139988 L 41.498452 33.115293 C 42.758742 32.397406 43.763784 31.229643 44.184944 30.049119 L 45.824916 25.598221 C 47.793521 20.174189 44.727347 17.663181 38.432279 17.663181 L 11.382309 17.663181 L 1.465901 45.000305 L 17.214739 45.000305 L 21.962363 31.89648 Z M 24.741382 24.254976 L 28.432915 24.254976 C 29.571962 24.254976 30.197321 25.138774 29.737873 26.306536 L 29.109324 28.11242 C 28.691354 29.251467 27.427873 30.173552 26.250539 30.173552 L 22.600484 30.173552 Z M 67.699721 24.254976 L 85.388448 24.254976 L 87.775023 17.663181 L 51.322333 17.663181 L 43.84993 38.284077 C 43.42877 39.451839 43.550013 40.632364 44.309378 41.35025 L 48.05196 44.374946 C 48.463548 44.834394 49.098479 45.000305 49.9408 45.000305 L 77.871377 45.000305 L 80.261142 38.40532 L 64.684597 38.40532 C 63.504072 38.40532 62.920191 37.483234 63.290301 36.344187 L 64.008188 34.41706 L 79.922938 34.41706 L 82.197841 28.246426 L 66.273519 28.246426 Z M 124.530821 17.663181 L 100.668268 17.663181 C 94.373199 17.663181 89.542619 20.174189 87.564443 25.598221 L 82.950824 38.284077 C 82.529664 39.451839 82.654098 40.632364 83.413462 41.35025 L 87.156045 44.374946 C 87.564443 44.834394 88.199374 45.000305 89.041694 45.000305 L 114.614413 45.000305 L 117.01375 38.40532 L 103.785491 38.40532 C 102.608157 38.40532 102.024276 37.483234 102.391196 36.344187 L 106.054013 26.306536 C 106.51346 25.138774 107.735463 24.254976 108.861747 24.254976 L 122.131484 24.254976 Z M 92.06639 46.764711 L 84.498269 53.694711 L 84.252592 54.454075 L 96.63853 54.454075 L 106.51346 47.39007 L 106.72085 46.764711 Z M 155.773249 45.000305 L 162.786204 25.639699 C 163.248842 24.420887 163.086121 23.240362 162.285279 22.535238 L 157.713138 18.28854 C 157.291978 17.825902 156.615569 17.663181 155.865776 17.663181 L 137.420875 17.663181 C 136.629604 17.663181 135.911717 17.825902 135.152353 18.28854 L 129.195489 21.23028 C 127.976677 21.938595 127.013113 23.119119 126.457948 24.379409 L 116.378819 45.000305 L 132.220185 45.000305 L 135.87024 37.524712 L 138.218527 39.872999 L 141.881344 39.872999 L 140.02441 45.000305 Z M 141.54314 26.306536 C 142.127021 25.180252 143.304355 24.254976 144.48488 24.254976 L 145.406965 24.254976 C 146.577918 24.254976 147.212849 25.180252 146.791689 26.306536 L 144.063719 33.874657 L 137.759079 33.874657 Z M 201.226643 27.608304 L 181.314061 27.608304 L 181.7767 26.306536 C 182.236147 25.138774 183.45815 24.254976 184.635484 24.254976 L 202.435883 24.254976 L 204.83522 17.663181 L 178.289366 17.663181 C 177.571479 17.663181 176.783399 17.825902 176.024034 18.28854 L 168.33148 22.535238 C 167.07119 23.240362 166.024671 24.420887 165.565223 25.639699 L 162.160845 35.042419 L 182.156382 35.042419 L 181.652266 36.344187 C 181.272584 37.483234 180.053772 38.40532 178.873247 38.40532 L 160.938842 38.40532 L 158.549077 45.000305 L 185.1396 45.000305 C 185.886202 45.000305 186.645567 44.834394 187.404931 44.374946 L 195.177251 40.007005 C 196.386491 39.289118 197.362817 38.284077 197.822264 37.023787 Z M 201.226643 27.608304 " stroke="#074981" stroke-width="11.025" stroke-opacity="1" stroke-miterlimit="4"/><g fill="#ffffff" fill-opacity="1"><g transform="translate(111.998271, 97.226189)"><g><path d="M 27.613281 -10.078125 L 40.671875 -10.078125 C 41.652344 -10.078125 42.574219 -10.285156 43.5 -10.851562 L 50.804688 -14.550781 C 52.347656 -15.425781 53.582031 -16.867188 54.09375 -18.304688 L 56.101562 -23.757812 C 58.515625 -30.390625 54.761719 -33.476562 47.050781 -33.476562 L 13.933594 -33.476562 L 1.800781 0 L 21.082031 0 L 26.894531 -16.042969 Z M 30.285156 -25.402344 L 34.8125 -25.402344 C 36.199219 -25.402344 36.972656 -24.320312 36.40625 -22.882812 L 35.632812 -20.671875 C 35.121094 -19.28125 33.578125 -18.152344 32.136719 -18.152344 L 27.664062 -18.152344 Z M 30.285156 -25.402344 "/></g></g></g><g fill="#ffffff" fill-opacity="1"><g transform="translate(160.899186, 97.226189)"><g><path d="M 33.988281 -25.402344 L 55.636719 -25.402344 L 58.566406 -33.476562 L 13.933594 -33.476562 L 4.78125 -8.226562 C 4.269531 -6.789062 4.421875 -5.347656 5.347656 -4.472656 L 9.925781 -0.769531 C 10.4375 -0.207031 11.210938 0 12.238281 0 L 46.433594 0 L 49.363281 -8.074219 L 30.285156 -8.074219 C 28.847656 -8.074219 28.128906 -9.203125 28.589844 -10.59375 L 29.464844 -12.957031 L 48.953125 -12.957031 L 51.730469 -20.515625 L 32.242188 -20.515625 Z M 33.988281 -25.402344 "/></g></g></g><g fill="#ffffff" fill-opacity="1"><g transform="translate(208.771696, 97.226189)"><g><path d="M 55.6875 -33.476562 L 26.480469 -33.476562 C 18.769531 -33.476562 12.855469 -30.390625 10.4375 -23.757812 L 4.78125 -8.226562 C 4.269531 -6.789062 4.421875 -5.347656 5.347656 -4.472656 L 9.925781 -0.769531 C 10.4375 -0.207031 11.210938 0 12.238281 0 L 43.554688 0 L 46.484375 -8.074219 L 30.285156 -8.074219 C 28.847656 -8.074219 28.128906 -9.203125 28.589844 -10.59375 L 33.0625 -22.882812 C 33.628906 -24.320312 35.121094 -25.402344 36.507812 -25.402344 L 52.757812 -25.402344 Z M 15.941406 2.160156 L 6.683594 10.644531 L 6.375 11.570312 L 21.546875 11.570312 L 33.628906 2.929688 L 33.886719 2.160156 Z M 15.941406 2.160156 "/></g></g></g><g fill="#ffffff" fill-opacity="1"><g transform="translate(253.764654, 97.226189)"><g><path d="M 48.953125 0 L 57.539062 -23.703125 C 58.105469 -25.195312 57.898438 -26.636719 56.921875 -27.511719 L 51.316406 -32.703125 C 50.804688 -33.269531 49.980469 -33.476562 49.054688 -33.476562 L 26.480469 -33.476562 C 25.503906 -33.476562 24.628906 -33.269531 23.703125 -32.703125 L 16.402344 -29.105469 C 14.910156 -28.230469 13.730469 -26.789062 13.0625 -25.246094 L 0.71875 0 L 20.105469 0 L 24.578125 -9.152344 L 27.457031 -6.273438 L 31.933594 -6.273438 L 29.667969 0 Z M 31.519531 -22.882812 C 32.242188 -24.269531 33.679688 -25.402344 35.121094 -25.402344 L 36.25 -25.402344 C 37.691406 -25.402344 38.460938 -24.269531 37.949219 -22.882812 L 34.605469 -13.625 L 26.894531 -13.625 Z M 31.519531 -22.882812 "/></g></g></g><g fill="#ffffff" fill-opacity="1"><g transform="translate(304.516715, 97.226189)"><g><path d="M 53.835938 -21.289062 L 29.464844 -21.289062 L 30.03125 -22.882812 C 30.59375 -24.320312 32.085938 -25.402344 33.527344 -25.402344 L 55.328125 -25.402344 L 58.257812 -33.476562 L 25.761719 -33.476562 C 24.886719 -33.476562 23.910156 -33.269531 22.984375 -32.703125 L 13.574219 -27.511719 C 12.03125 -26.636719 10.746094 -25.195312 10.179688 -23.703125 L 6.015625 -12.1875 L 30.492188 -12.1875 L 29.875 -10.59375 C 29.414062 -9.203125 27.921875 -8.074219 26.480469 -8.074219 L 4.523438 -8.074219 L 1.59375 0 L 34.144531 0 C 35.070312 0 35.996094 -0.207031 36.917969 -0.769531 L 46.433594 -6.117188 C 47.925781 -6.992188 49.105469 -8.226562 49.671875 -9.769531 Z M 53.835938 -21.289062 "/></g></g></g><g clip-path="url(#c53e07d0f4)"><g clip-path="url(#fa63f772a2)"><path fill="#ff2429" d="M 372.089844 4.960938 L 372.089844 22.78125 L 252.617188 22.78125 L 252.617188 4.960938 Z M 372.089844 4.960938 " fill-opacity="1" fill-rule="nonzero"/></g></g><g clip-path="url(#604d564630)"><g clip-path="url(#55c8bbeced)"><path fill="#ff2429" d="M 337.296875 33.285156 L 337.296875 43.5 L 252.664062 43.5 L 252.664062 33.285156 Z M 337.296875 33.285156 " fill-opacity="1" fill-rule="nonzero"/></g></g><path stroke-linecap="butt" transform="matrix(0.759848, 0, 0, 0.759848, 228.245688, 0.232286)" fill="none" stroke-linejoin="miter" d="M 32.151308 49.308484 L 30.028143 61.06043 L -2.050658 60.8805 L -3.613471 58.330647 L -1.485166 48.249472 L 24.059636 27.860926 L 24.625127 23.38326 L 17.217186 22.63784 L 14.482263 27.737546 L 5.722282 27.300576 L 3.85616 25.311073 L 7.151434 13.559127 L 15.664654 11.250893 L 38.484815 12.376736 L 39.425587 17.718062 L 35.873271 32.461972 L 13.999024 49.493554 Z M 32.151308 49.308484 " stroke="#ff2429" stroke-width="12.126095" stroke-opacity="1" stroke-miterlimit="4"/><g fill="#ffffff" fill-opacity="1"><g transform="translate(228.245688, 46.582989)"><g><path d="M 24.421875 -8.890625 L 22.828125 0.046875 L -1.5625 -0.09375 L -2.734375 -2.03125 L -1.140625 -9.6875 L 18.28125 -25.1875 L 18.703125 -28.59375 L 13.09375 -29.15625 L 11.015625 -25.28125 L 4.34375 -25.609375 L 2.921875 -27.125 L 5.4375 -36.046875 L 11.90625 -37.796875 L 29.25 -36.953125 L 29.953125 -32.890625 L 27.265625 -21.6875 L 10.625 -8.734375 Z M 24.421875 -8.890625 "/></g></g></g></svg>